<svg id="Layer_1" data-name="Layer 1" xmlns="http://www.w3.org/2000/svg" xmlns:xlink="http://www.w3.org/1999/xlink" viewBox="0 0 183.48 143.78"><defs><style>.cls-1{fill:url(#radial-gradient);}.cls-2{fill:url(#radial-gradient-2);}.cls-3{fill:url(#linear-gradient);}.cls-4{fill:url(#radial-gradient-3);}.cls-5{fill:url(#radial-gradient-4);}.cls-6{fill:url(#radial-gradient-5);}.cls-7{fill:url(#radial-gradient-6);}.cls-8{fill:url(#radial-gradient-7);}.cls-9{fill:url(#linear-gradient-2);}.cls-10{fill:url(#radial-gradient-8);}.cls-11{fill:url(#radial-gradient-9);}.cls-12{fill:url(#radial-gradient-10);}.cls-13{fill:url(#radial-gradient-11);}.cls-14{fill:url(#radial-gradient-12);}.cls-15{fill:#fff;}.cls-16{fill:url(#radial-gradient-13);}.cls-17{fill:url(#linear-gradient-3);}.cls-18{fill:url(#radial-gradient-14);}.cls-19{fill:url(#radial-gradient-15);}</style><radialGradient id="radial-gradient" cx="860.51" cy="890.71" r="179.17" gradientTransform="matrix(-0.98, -0.18, -0.22, 0.98, 1237.11, -522.53)" gradientUnits="userSpaceOnUse"><stop offset="0" stop-color="#d48000"/><stop offset="0.04" stop-color="#d68502"/><stop offset="0.32" stop-color="#e4a90f"/><stop offset="0.58" stop-color="#efc319"/><stop offset="0.81" stop-color="#f5d31f"/><stop offset="1" stop-color="#f7d821"/></radialGradient><radialGradient id="radial-gradient-2" cx="1135.74" cy="829.83" r="305.37" xlink:href="#radial-gradient"/><linearGradient id="linear-gradient" x1="877.03" y1="831.34" x2="897.9" y2="833.3" gradientTransform="matrix(-0.98, -0.18, -0.22, 0.98, 1237.11, -522.53)" xlink:href="#radial-gradient"/><radialGradient id="radial-gradient-3" cx="959.21" cy="808.09" r="173.79" gradientTransform="matrix(-0.98, -0.18, -0.22, 0.98, 1237.11, -522.53)" gradientUnits="userSpaceOnUse"><stop offset="0" stop-color="#f7d821"/><stop offset="0.9" stop-color="#d48000"/></radialGradient><radialGradient id="radial-gradient-4" cx="929.22" cy="829.39" r="153.66" xlink:href="#radial-gradient-3"/><radialGradient id="radial-gradient-5" cx="989.22" cy="766.34" r="132.91" xlink:href="#radial-gradient-3"/><radialGradient id="radial-gradient-6" cx="955.74" cy="754.61" r="126.59" gradientTransform="matrix(-0.98, -0.18, -0.22, 0.98, 1228.85, -547.25)" xlink:href="#radial-gradient-3"/><radialGradient id="radial-gradient-7" cx="868.34" cy="778.74" r="238.91" xlink:href="#radial-gradient-3"/><linearGradient id="linear-gradient-2" x1="931.53" y1="795.15" x2="1029.74" y2="803.6" gradientTransform="matrix(-0.98, -0.18, -0.22, 0.98, 1237.11, -522.53)" gradientUnits="userSpaceOnUse"><stop offset="0" stop-color="#f7d821"/><stop offset="0.14" stop-color="#efc319"/><stop offset="0.33" stop-color="#e6ab10"/><stop offset="0.65" stop-color="#f7d821"/><stop offset="1" stop-color="#d48000"/></linearGradient><radialGradient id="radial-gradient-8" cx="1066.62" cy="764.17" r="226.35" xlink:href="#radial-gradient-3"/><radialGradient id="radial-gradient-9" cx="950.52" cy="806" r="89.76" gradientTransform="matrix(-0.98, -0.18, -0.22, 0.98, 1237.11, -522.53)" gradientUnits="userSpaceOnUse"><stop offset="0" stop-color="#fff"/><stop offset="1" stop-color="#f7d821"/></radialGradient><radialGradient id="radial-gradient-10" cx="950.54" cy="806" r="89.74" xlink:href="#radial-gradient-9"/><radialGradient id="radial-gradient-11" cx="940.27" cy="778.77" r="85.03" xlink:href="#radial-gradient-9"/><radialGradient id="radial-gradient-12" cx="940.33" cy="778.77" r="84.97" xlink:href="#radial-gradient-9"/><radialGradient id="radial-gradient-13" cx="942.04" cy="772.94" r="53.55" xlink:href="#radial-gradient-9"/><linearGradient id="linear-gradient-3" x1="943.89" y1="791.08" x2="1008.94" y2="785.69" gradientTransform="matrix(-0.98, -0.18, -0.22, 0.98, 1237.11, -522.53)" xlink:href="#radial-gradient-9"/><radialGradient id="radial-gradient-14" cx="958.13" cy="832.44" r="66.34" xlink:href="#radial-gradient-9"/><radialGradient id="radial-gradient-15" cx="959.22" cy="830.93" r="158.13" gradientTransform="matrix(-0.98, -0.18, -0.22, 0.98, 1237.11, -522.53)" gradientUnits="userSpaceOnUse"><stop offset="0.04" stop-color="#f7d821"/><stop offset="0.76" stop-color="#d48000"/></radialGradient></defs><path class="cls-1" d="M162.22,92.51c11.91,8.08,20.6,14.72,23.89,19.78s8.94,10.74,2.6,27.38C182.09,157.05,170,163.72,162,166.15c-9.37,2.84-20.5,5.74-80.66-8.35-28.1-6.58-54.76-15.55-63.22-23.5-8.28-7.79-11.64-15.56-8.84-27.92C12,94.29,17.23,93.59,21,91.09s134.33,3.62,134.33,3.62" transform="translate(-8.26 -24.72)"/><path class="cls-2" d="M162.81,90c11.9,8.08,20.59,14.73,23.88,19.79s8.36,13.29,2,29.93c-6.62,17.38-18.15,21.49-26.18,23.92-9.37,2.85-20.52,5.73-80.64-8.35-28.13-6.58-54.78-15.55-63.24-23.5-8.29-7.78-11.92-14.47-9.1-26.82,2.73-12.09,8.25-13.88,12-16.38s134.33,3.61,134.33,3.61" transform="translate(-8.26 -24.72)"/><path class="cls-3" d="M162.81,90c11.9,8.08,20.59,14.73,23.88,19.79s8.36,13.29,2,29.93c-6.62,17.38-18.15,21.49-26.18,23.92-9.37,2.85,56.83-28.62.28-73.64" transform="translate(-8.26 -24.72)"/><path class="cls-4" d="M17.38,93.51c-3.92,17.2.83,26.67,2.06,29.94,1.43,3.82,12.23,12,23.21,15,3.32.94,55.85,16.1,67.08,15.34,13.83-.94,34.39.06,46.08-23.06s10.63-25.32,8.9-31.41-3.57-25.47-11.4-37.7-37.57,26.66-37.57,26.66S61.56,59.21,44.82,66.48s-26.6,18-27.44,27" transform="translate(-8.26 -24.72)"/><path class="cls-5" d="M17.38,93.51c-3.92,17.2.83,26.67,2.06,29.94,1.43,3.82,12.23,12,23.21,15,3.32.94,55.85,16.1,67.08,15.34,13.83-.94-11-46.31-24.14-58-34.38-30.49-67.37-11.28-68.21-2.3" transform="translate(-8.26 -24.72)"/><path class="cls-6" d="M22.44,78.77,69,63.35,119.48,83.7l19.45-17.58L76.5,35.22,44.61,42.75S35.89,50,35.07,51,30,57,29.91,57.44,27.15,62.68,26,66,23.14,73.83,23,74.67" transform="translate(-8.26 -24.72)"/><polyline class="cls-7" points="66.45 6.44 128.94 32.08 137.05 27.45 123.63 15.17 106.33 5.23 88.38 1.1 77.94 0.96 69.86 2.01 63.6 5.73 65.2 6.38"/><path class="cls-8" d="M24.73,85c4.55-1.2,11.21-.62,19.86,1.88,21.74,6.28,41.09,21.92,58.52,33,9,16,15.12,33.41,6.62,34C98.5,154.6,46,139.44,42.65,138.5c-11-3.07-21.78-11.23-23.21-15-1.23-3.27-6-12.74-2.06-29.94C17.59,91.05,20.27,87.79,24.73,85Z" transform="translate(-8.26 -24.72)"/><path class="cls-9" d="M155.66,64.06c.93,2.1,3.7,8.72,1.83,10.38-3.25,2.9-9-2.92-11.59-1.73-2.24,1.05,1.54,10.35-.79,17.17-2.24,6.56-10,12.74-17.94,13.49-12.88,1.24-18.57-4.17-22.31-7.31S69.32,61.42,35.59,76.74C24,82,19.56,94.13,18.91,104.56c-.7,11,1.59,21.45.11,19.17s-4-14-3.55-18.87c.39-4.41,1.33-15.43,3.42-21C20.68,79,24.05,69.53,34.33,62.73c7.54-5,19.59-8.85,31.61-8.25,12.61.64,24,4.13,30.07,7.35C101.87,65,115.85,73,118,74.32c3.21,2,7.13,3.79,9.54,0s0-6.23-1.78-8.49c-4.18-5.31-18.1-12.85-25.19-16.37C70.66,34.56,43.29,46,37.69,50.92A43.69,43.69,0,0,0,25.75,67.33s2.75-10.25,10-17.88C44.09,40.77,53.25,35.26,60.18,33c10.2-3.38,16.28-4.11,21.32-3.69,7.84.65,21.94,4.48,26.5,6.33s25.05,15,28.38,16.53c2.77,1.31,5.67,3.57,6.12,1.65s-2.06-4.46-4.37-6.06-13.29-10.36-23.25-14.48c-8.75-3.64-17.79-5.85-23.82-5.82-9.16,0-19.13,3.29-20.4,4.13a32.11,32.11,0,0,1,13.89-5.11c8.73-1,15.77-.21,24.11,2,5.63,1.45,16.12,5.8,21.21,9.17,6.37,4.19,19.74,14.55,25.79,26.48" transform="translate(-8.26 -24.72)"/><path class="cls-10" d="M156,62.79c.9,2.08,3.68,8.72,1.81,10.37-3.25,2.91-9.05-2.92-11.57-1.73-2.27,1,1.51,10.35-.81,17.18-2.25,6.54-10,12.73-17.94,13.49-12.88,1.23-18.58-4.18-22.29-7.33S71,60.06,35.87,75.46c-11.69,5.13-16.6,17.28-17.26,27.71-.69,11,1.49,22.49,0,20.19s-3.89-15.06-3.46-19.89c.4-4.43,1.93-15.31,4-21C21,77.68,24.33,68.26,34.62,61.45c7.54-5,19.6-8.85,31.62-8.24,12.6.63,24,4.13,30,7.34s19.85,11.12,22,12.5c3.19,2,7.12,3.78,9.53,0s0-6.23-1.77-8.49C121.9,59.27,108,51.67,100.87,48.2,70.29,33.27,43.59,44.74,38,49.63A43.69,43.69,0,0,0,26,66s2.77-10.24,10-17.86c8.3-8.68,17.46-14.2,24.4-16.5,10.21-3.39,16.27-4.1,21.3-3.69,7.84.64,22,4.48,26.53,6.34s25,15,28.35,16.52c2.78,1.31,5.69,3.58,6.13,1.66s-2.06-4.48-4.36-6.07S125.12,36.11,115.16,32c-8.74-3.64-17.77-5.86-23.8-5.84-9.15,0-19.13,3.3-20.42,4.14a32.13,32.13,0,0,1,13.91-5.11c8.71-1,15.76-.2,24.09,2,5.65,1.47,16.14,5.81,21.22,9.17,6.38,4.21,19.73,14.57,25.81,26.5" transform="translate(-8.26 -24.72)"/><path class="cls-11" d="M119.84,86c-6.29-6.16-19.9-18.64-39.14-22.11S78.16,67,87.05,70.67c7.62,3.13,20.68,10.7,26.74,14.86C121.86,91.06,126.26,92.22,119.84,86Z" transform="translate(-8.26 -24.72)"/><path class="cls-12" d="M59.42,59.84c-4.9-1.43-16.56,2-10.36,3.2S65.31,61.57,59.42,59.84Z" transform="translate(-8.26 -24.72)"/><path class="cls-13" d="M136.48,58.66c-5.85-5.73-18.54-17.36-36.46-20.6s-2.37,3,5.91,6.38c7.11,2.92,19.28,10,24.93,13.83C138.37,63.44,142.47,64.52,136.48,58.66Z" transform="translate(-8.26 -24.72)"/><path class="cls-14" d="M80.33,34.88c-4.35-1.83-15.47.17-9.88,1.91S85.58,37.09,80.33,34.88Z" transform="translate(-8.26 -24.72)"/><path class="cls-15" d="M182.24,148.58c2.54-3.53,7.63-11.09,8.13-20.43s-1.67-.88-2.87,3.62a97.11,97.11,0,0,1-5.43,13.94C179.92,150,179.65,152.19,182.24,148.58Z" transform="translate(-8.26 -24.72)"/><path class="cls-15" d="M189.79,119.05c.19-2.46-2.59-7.35-2.52-4.36S189.57,122,189.79,119.05Z" transform="translate(-8.26 -24.72)"/><path class="cls-15" d="M172.19,158.53c2.4-.55,6.57-4.64,3.65-3.7S169.28,159.19,172.19,158.53Z" transform="translate(-8.26 -24.72)"/><path class="cls-16" d="M81.29,27.23c7.84.65,21.74,5.2,26.4,6.86,9,3.21,25.16,14.45,28.48,16,2.78,1.31,5.67,3.58,6.12,1.66a3.16,3.16,0,0,0-.46-2.14,3.81,3.81,0,0,1,1,2.9c-.44,1.92-3.35-.35-6.13-1.66C133.34,49.3,115,38.12,108.1,35.2c-4.65-2-18.48-6.57-26.32-7.21a30.36,30.36,0,0,0-3.62-.09c1-.23,2-.46,3.07-.68Z" transform="translate(-8.26 -24.72)"/><path class="cls-17" d="M66.24,53.21c12.6.63,24,4.13,30,7.34s19.85,11.12,22,12.5c3.19,2,7.12,3.78,9.53,0a5.07,5.07,0,0,0,.18-5.84c1.26,1.79,2.09,3.84.31,6.6-2.4,3.77-6.33,2-9.53,0-2.17-1.37-16.14-9.36-22-12.49-6-3.22-17.46-6.71-30.06-7.35A56.87,56.87,0,0,0,42,58.56L39,59A56.53,56.53,0,0,1,66.24,53.21Z" transform="translate(-8.26 -24.72)"/><path class="cls-18" d="M35.37,74.7C70.48,59.3,101,90.87,104.66,94s9.43,8.55,22.31,7.32c7.92-.76,15.7-6.94,17.94-13.5,2.32-6.82-1.47-16.13.8-17.17,1.17-.55,3,.38,5,1.27l.7.85c-2.05-.91-4-1.92-5.19-1.36-2.27,1,1.51,10.35-.81,17.18-2.25,6.54-10,12.73-17.94,13.49-12.88,1.23-18.58-4.18-22.29-7.33S71,60.06,35.87,75.46a26,26,0,0,0-8.27,5.76l-1.08-.12A26.06,26.06,0,0,1,35.37,74.7Z" transform="translate(-8.26 -24.72)"/><path class="cls-19" d="M103.11,119.86c11.46,7.25,22.11,12.52,32,11.84,13.15-.93,29.57-32.33,29.57-32.33,1.73,6.09,2.79,8.29-8.9,31.41s-32.25,22.12-46.08,23.06C118.23,153.27,112.16,135.88,103.11,119.86Z" transform="translate(-8.26 -24.72)"/></svg>