<svg xmlns="http://www.w3.org/2000/svg" xmlns:xlink="http://www.w3.org/1999/xlink" viewBox="0 0 204.64 64.17"><defs><style>.cls-1{fill:#d9e021;}.cls-2{fill:url(#linear-gradient);}.cls-3{fill:url(#linear-gradient-2);}.cls-4{fill:url(#linear-gradient-3);}.cls-5{fill:url(#linear-gradient-4);}.cls-6{fill:url(#linear-gradient-5);}.cls-7{fill:url(#linear-gradient-6);}.cls-8{fill:url(#linear-gradient-7);}.cls-9{fill:#2e3192;}.cls-10{fill:url(#radial-gradient);}.cls-11{fill:url(#radial-gradient-2);}.cls-12{fill:url(#linear-gradient-8);}.cls-13{fill:url(#radial-gradient-3);}.cls-14{fill:url(#radial-gradient-4);}.cls-15{fill:url(#radial-gradient-5);}.cls-16{fill:url(#radial-gradient-6);}.cls-17{fill:url(#radial-gradient-7);}.cls-18{fill:url(#linear-gradient-9);}.cls-19{fill:url(#radial-gradient-8);}.cls-20{fill:url(#radial-gradient-9);}.cls-21{fill:url(#radial-gradient-10);}.cls-22{fill:url(#radial-gradient-11);}.cls-23{fill:url(#radial-gradient-12);}.cls-24{fill:#fff;}.cls-25{fill:url(#radial-gradient-13);}.cls-26{fill:url(#linear-gradient-10);}.cls-27{fill:url(#radial-gradient-14);}.cls-28{fill:url(#radial-gradient-15);}</style><linearGradient id="linear-gradient" x1="161.84" y1="14.84" x2="183" y2="14.84" gradientUnits="userSpaceOnUse"><stop offset="0.4" stop-color="#b9cf2f"/><stop offset="0.62" stop-color="#b5ca2e"/><stop offset="0.88" stop-color="#a8bc2a"/><stop offset="1" stop-color="#a0b328"/></linearGradient><linearGradient id="linear-gradient-2" x1="183" y1="14.84" x2="204.16" y2="14.84" gradientUnits="userSpaceOnUse"><stop offset="0" stop-color="#b3c72f"/><stop offset="0.16" stop-color="#acbf2e"/><stop offset="0.77" stop-color="#94a625"/></linearGradient><linearGradient id="linear-gradient-3" x1="183" y1="34.66" x2="204.16" y2="34.66" gradientUnits="userSpaceOnUse"><stop offset="0" stop-color="#5c6617"/><stop offset="0.11" stop-color="#78861f"/><stop offset="0.24" stop-color="#90a025"/><stop offset="0.38" stop-color="#a3b52b"/><stop offset="0.53" stop-color="#b0c42e"/><stop offset="0.71" stop-color="#b8cc30"/><stop offset="1" stop-color="#bacf31"/></linearGradient><linearGradient id="linear-gradient-4" x1="140.22" y1="14.84" x2="161.38" y2="14.84" gradientUnits="userSpaceOnUse"><stop offset="0" stop-color="#2d6cab"/><stop offset="0.14" stop-color="#2d6aaa"/><stop offset="1" stop-color="#272e88"/></linearGradient><linearGradient id="linear-gradient-5" x1="161.38" y1="14.84" x2="182.54" y2="14.84" gradientUnits="userSpaceOnUse"><stop offset="0.16" stop-color="#1f3c8f"/><stop offset="1" stop-color="#282063"/></linearGradient><linearGradient id="linear-gradient-6" x1="161.38" y1="34.66" x2="182.54" y2="34.66" gradientUnits="userSpaceOnUse"><stop offset="0.28" stop-color="#26195c"/><stop offset="1" stop-color="#16519a"/></linearGradient><linearGradient id="linear-gradient-7" x1="140.22" y1="34.66" x2="161.38" y2="34.66" gradientUnits="userSpaceOnUse"><stop offset="0" stop-color="#0c64a5"/><stop offset="0.77" stop-color="#211f61"/></linearGradient><radialGradient id="radial-gradient" cx="850.67" cy="-675.77" r="24.13" gradientTransform="matrix(0.97, -0.22, -0.26, -0.97, -856.19, -442.14)" gradientUnits="userSpaceOnUse"><stop offset="0" stop-color="#d48000"/><stop offset="0.04" stop-color="#d68502"/><stop offset="0.32" stop-color="#e4a90f"/><stop offset="0.58" stop-color="#efc319"/><stop offset="0.81" stop-color="#f5d31f"/><stop offset="1" stop-color="#f7d821"/></radialGradient><radialGradient id="radial-gradient-2" cx="363.38" cy="-70.42" r="41.12" gradientTransform="translate(384.58 29.22) rotate(177.54)" xlink:href="#radial-gradient"/><linearGradient id="linear-gradient-8" x1="852.96" y1="-667.17" x2="855.77" y2="-667.43" gradientTransform="matrix(0.97, -0.22, -0.26, -0.97, -856.19, -442.14)" xlink:href="#radial-gradient"/><radialGradient id="radial-gradient-3" cx="863.97" cy="-664.65" r="23.4" gradientTransform="matrix(0.97, -0.22, -0.26, -0.97, -856.19, -442.14)" gradientUnits="userSpaceOnUse"><stop offset="0" stop-color="#f7d821"/><stop offset="0.9" stop-color="#d48000"/></radialGradient><radialGradient id="radial-gradient-4" cx="335.57" cy="-70.36" r="20.69" gradientTransform="translate(384.58 29.22) rotate(177.54)" xlink:href="#radial-gradient-3"/><radialGradient id="radial-gradient-5" cx="343.65" cy="-61.87" r="17.9" gradientTransform="translate(384.58 29.22) rotate(177.54)" xlink:href="#radial-gradient-3"/><radialGradient id="radial-gradient-6" cx="863.5" cy="-657.44" r="17.05" gradientTransform="matrix(0.97, -0.22, -0.26, -0.97, -856.19, -442.95)" xlink:href="#radial-gradient-3"/><radialGradient id="radial-gradient-7" cx="327.37" cy="-63.54" r="32.17" gradientTransform="translate(384.58 29.22) rotate(177.54)" xlink:href="#radial-gradient-3"/><linearGradient id="linear-gradient-9" x1="860.3" y1="-662.22" x2="873.52" y2="-663.35" gradientTransform="matrix(0.97, -0.22, -0.26, -0.97, -856.19, -442.14)" gradientUnits="userSpaceOnUse"><stop offset="0" stop-color="#f7d821"/><stop offset="0.14" stop-color="#efc319"/><stop offset="0.33" stop-color="#e6ab10"/><stop offset="0.65" stop-color="#f7d821"/><stop offset="1" stop-color="#d48000"/></linearGradient><radialGradient id="radial-gradient-8" cx="354.07" cy="-61.58" r="30.48" gradientTransform="translate(384.58 29.22) rotate(177.54)" xlink:href="#radial-gradient-3"/><radialGradient id="radial-gradient-9" cx="862.8" cy="-664.36" r="12.09" gradientTransform="matrix(0.97, -0.22, -0.26, -0.97, -856.19, -442.14)" gradientUnits="userSpaceOnUse"><stop offset="0" stop-color="#fff"/><stop offset="1" stop-color="#f7d821"/></radialGradient><radialGradient id="radial-gradient-10" cx="338.44" cy="-67.21" r="12.08" gradientTransform="translate(384.58 29.22) rotate(177.54)" xlink:href="#radial-gradient-9"/><radialGradient id="radial-gradient-11" cx="337.06" cy="-63.54" r="11.45" gradientTransform="translate(384.58 29.22) rotate(177.54)" xlink:href="#radial-gradient-9"/><radialGradient id="radial-gradient-12" cx="337.07" cy="-63.54" r="11.44" gradientTransform="translate(384.58 29.22) rotate(177.54)" xlink:href="#radial-gradient-9"/><radialGradient id="radial-gradient-13" cx="337.3" cy="-62.76" r="7.21" gradientTransform="translate(384.58 29.22) rotate(177.54)" xlink:href="#radial-gradient-9"/><linearGradient id="linear-gradient-10" x1="861.85" y1="-661.72" x2="870.61" y2="-661" gradientTransform="matrix(0.97, -0.22, -0.26, -0.97, -856.19, -442.14)" xlink:href="#radial-gradient-9"/><radialGradient id="radial-gradient-14" cx="339.46" cy="-70.77" r="8.93" gradientTransform="translate(384.58 29.22) rotate(177.54)" xlink:href="#radial-gradient-9"/><radialGradient id="radial-gradient-15" cx="863.97" cy="-667.72" r="21.29" gradientTransform="matrix(0.97, -0.22, -0.26, -0.97, -856.19, -442.14)" gradientUnits="userSpaceOnUse"><stop offset="0.04" stop-color="#f7d821"/><stop offset="0.76" stop-color="#d48000"/></radialGradient></defs><g id="property"><g id="software"><path class="cls-1" d="M5.36,54.78a3.54,3.54,0,0,1,1.27,1.36,4.24,4.24,0,0,1,0,3.84,3.47,3.47,0,0,1-1.24,1.36,3.21,3.21,0,0,1-1.75.49,3.11,3.11,0,0,1-1.52-.37,3.28,3.28,0,0,1-1.14-1v4a.5.5,0,0,1-.14.38.46.46,0,0,1-.36.15.45.45,0,0,1-.35-.15A.53.53,0,0,1,0,64.4v-3a.41.41,0,0,1,0-.12V58.07a4,4,0,0,1,.46-1.93,3.56,3.56,0,0,1,1.28-1.36,3.47,3.47,0,0,1,1.8-.49A3.48,3.48,0,0,1,5.36,54.78Zm-.49,5.74a2.61,2.61,0,0,0,.94-1,3.31,3.31,0,0,0,0-2.88,2.64,2.64,0,0,0-.94-1,2.39,2.39,0,0,0-1.32-.37,2.38,2.38,0,0,0-1.31.37,2.7,2.7,0,0,0-.93,1A3.09,3.09,0,0,0,1,58.07a3.13,3.13,0,0,0,0,.34s0,0,0,.06a2.82,2.82,0,0,0,.84,1.74,2.38,2.38,0,0,0,1.71.67A2.47,2.47,0,0,0,4.87,60.52Z" transform="translate(0 -0.81)"/><path class="cls-1" d="M13,54.43a.47.47,0,0,1,.31.42.37.37,0,0,1,0,.12.38.38,0,0,1-.15.25.56.56,0,0,1-.3.07l-.4,0h-.31a2.26,2.26,0,0,0-1.56.54,1.82,1.82,0,0,0-.61,1.41v4a.56.56,0,0,1-.12.38.56.56,0,0,1-.72,0A.56.56,0,0,1,9,61.25V54.87a.56.56,0,0,1,.12-.38.56.56,0,0,1,.72,0,.56.56,0,0,1,.12.38v.6a2.66,2.66,0,0,1,1-.88,2.51,2.51,0,0,1,1.24-.31A2,2,0,0,1,13,54.43Z" transform="translate(0 -0.81)"/><path class="cls-1" d="M19.25,54.78a3.42,3.42,0,0,1,1.26,1.35A3.92,3.92,0,0,1,21,58.07,4,4,0,0,1,20.52,60a3.54,3.54,0,0,1-4.9,1.34A3.35,3.35,0,0,1,14.35,60a4.3,4.3,0,0,1,0-3.87,3.31,3.31,0,0,1,1.27-1.35,3.61,3.61,0,0,1,3.63,0Zm-3.14.82a2.67,2.67,0,0,0-.93,1,3.17,3.17,0,0,0-.34,1.46,3.12,3.12,0,0,0,.34,1.44,2.67,2.67,0,0,0,.93,1,2.52,2.52,0,0,0,1.32.36,2.48,2.48,0,0,0,1.33-.36,2.57,2.57,0,0,0,.92-1A3.12,3.12,0,0,0,20,58.07a3.17,3.17,0,0,0-.33-1.46,2.57,2.57,0,0,0-.92-1,2.48,2.48,0,0,0-1.33-.36A2.52,2.52,0,0,0,16.11,55.6Z" transform="translate(0 -0.81)"/><path class="cls-1" d="M28.19,54.78a3.56,3.56,0,0,1,1.28,1.36,4.2,4.2,0,0,1,0,3.84,3.45,3.45,0,0,1-1.23,1.36,3.24,3.24,0,0,1-1.76.49A3.14,3.14,0,0,1,25,61.46a3.25,3.25,0,0,1-1.13-1v4a.54.54,0,0,1-.14.38.49.49,0,0,1-.36.15.45.45,0,0,1-.35-.15.53.53,0,0,1-.13-.38v-3a.37.37,0,0,1,0-.12V58.07a4,4,0,0,1,.47-1.93,3.41,3.41,0,0,1,3.08-1.85A3.47,3.47,0,0,1,28.19,54.78Zm-.48,5.74a2.59,2.59,0,0,0,.93-1,3.22,3.22,0,0,0,0-2.88,2.62,2.62,0,0,0-.93-1,2.44,2.44,0,0,0-1.32-.37,2.36,2.36,0,0,0-1.31.37,2.62,2.62,0,0,0-.93,1,3,3,0,0,0-.34,1.44c0,.15,0,.26,0,.34a.11.11,0,0,1,0,.06,2.76,2.76,0,0,0,.83,1.74,2.42,2.42,0,0,0,1.72.67A2.52,2.52,0,0,0,27.71,60.52Z" transform="translate(0 -0.81)"/><path class="cls-1" d="M36.46,54.76a3.07,3.07,0,0,1,1.12,1.29A4.22,4.22,0,0,1,38,57.93a.5.5,0,0,1-.13.35.49.49,0,0,1-.33.13H32.37a2.76,2.76,0,0,0,.82,1.8A2.48,2.48,0,0,0,35,60.9a2.76,2.76,0,0,0,.92-.17,2.24,2.24,0,0,0,.75-.43.52.52,0,0,1,.34-.13.46.46,0,0,1,.28.1.53.53,0,0,1,.17.37.43.43,0,0,1-.14.31,3.56,3.56,0,0,1-1.07.63,3.43,3.43,0,0,1-1.25.25A3.38,3.38,0,0,1,31.89,60a4.11,4.11,0,0,1-.45-1.94,4.28,4.28,0,0,1,.43-2,3.23,3.23,0,0,1,1.19-1.34,3.14,3.14,0,0,1,1.72-.48A3.08,3.08,0,0,1,36.46,54.76Zm-3.28,1.1a2.78,2.78,0,0,0-.78,1.68h4.67a2.73,2.73,0,0,0-.72-1.68,2.1,2.1,0,0,0-1.57-.64A2.19,2.19,0,0,0,33.18,55.86Z" transform="translate(0 -0.81)"/><path class="cls-1" d="M43.59,54.43a.47.47,0,0,1,.32.42.37.37,0,0,1,0,.12.36.36,0,0,1-.16.25.51.51,0,0,1-.3.07l-.39,0h-.31a2.24,2.24,0,0,0-1.56.54,1.82,1.82,0,0,0-.61,1.41v4a.56.56,0,0,1-.12.38.56.56,0,0,1-.72,0,.56.56,0,0,1-.13-.38V54.87a.56.56,0,0,1,.13-.38.56.56,0,0,1,.72,0,.56.56,0,0,1,.12.38v.6a2.58,2.58,0,0,1,.95-.88,2.5,2.5,0,0,1,1.23-.31A2,2,0,0,1,43.59,54.43Z" transform="translate(0 -0.81)"/><path class="cls-1" d="M48.79,60.87a.55.55,0,0,1,.13.38.48.48,0,0,1-.15.36.54.54,0,0,1-.39.15h-.26a2.2,2.2,0,0,1-1.22-.34,2.37,2.37,0,0,1-.83-.94,2.86,2.86,0,0,1-.3-1.33V55.54h-.83a.43.43,0,0,1-.45-.45.45.45,0,0,1,.12-.33.42.42,0,0,1,.33-.13h.83v-2.1a.55.55,0,0,1,.13-.38.45.45,0,0,1,.35-.15.46.46,0,0,1,.36.15.56.56,0,0,1,.14.38v2.1h1.44a.42.42,0,0,1,.33.13.45.45,0,0,1,.12.33.43.43,0,0,1-.45.45H46.75v3.61a1.68,1.68,0,0,0,.38,1.13,1.28,1.28,0,0,0,1,.44h.34A.4.4,0,0,1,48.79,60.87Z" transform="translate(0 -0.81)"/><path class="cls-1" d="M56.22,54.79a.79.79,0,0,1,0,.25L52,64.67a.4.4,0,0,1-.37.32.46.46,0,0,1-.23-.06.42.42,0,0,1-.29-.4.7.7,0,0,1,0-.25l1.26-3v0l-2.84-6.25a.51.51,0,0,1,0-.25.41.41,0,0,1,.28-.4.44.44,0,0,1,.23-.06.4.4,0,0,1,.38.29l2.49,5.56,2.37-5.55c.09-.2.21-.3.38-.3a.46.46,0,0,1,.23.06A.41.41,0,0,1,56.22,54.79Z" transform="translate(0 -0.81)"/></g><path class="cls-1" d="M69.23,54.31a2.5,2.5,0,0,1,.91,1.08A3.87,3.87,0,0,1,70.46,57v3.9a.52.52,0,0,1-.13.37.48.48,0,0,1-.35.14.49.49,0,0,1-.36-.14.53.53,0,0,1-.14-.37V57A2.35,2.35,0,0,0,69,55.48a1.51,1.51,0,0,0-1.22-.56,1.66,1.66,0,0,0-1.3.57A2.14,2.14,0,0,0,66,57v3.93a.57.57,0,0,1-.13.37.49.49,0,0,1-.36.14.48.48,0,0,1-.35-.14.49.49,0,0,1-.14-.37V57a2.35,2.35,0,0,0-.47-1.53,1.52,1.52,0,0,0-1.22-.56,1.69,1.69,0,0,0-1.3.56,2,2,0,0,0-.51,1.42v4a.52.52,0,0,1-.13.37.48.48,0,0,1-.35.14.49.49,0,0,1-.36-.14.53.53,0,0,1-.14-.37V54.54a.56.56,0,0,1,.14-.38.46.46,0,0,1,.36-.15.45.45,0,0,1,.35.15.55.55,0,0,1,.13.38v.3a2.5,2.5,0,0,1,.85-.67,2.39,2.39,0,0,1,1.06-.24,2.38,2.38,0,0,1,2.16,1.29,2.6,2.6,0,0,1,2.3-1.29A2.41,2.41,0,0,1,69.23,54.31Z" transform="translate(0 -0.81)"/><path class="cls-1" d="M77.36,54.44a3.47,3.47,0,0,1,1.27,1.36,4,4,0,0,1,.47,1.92v3.19a.52.52,0,0,1-.14.36.48.48,0,0,1-.36.15.52.52,0,0,1-.36-.14.53.53,0,0,1-.14-.37v-.82a3.1,3.1,0,0,1-1.13,1,3.25,3.25,0,0,1-1.52.37A3.19,3.19,0,0,1,73.7,61a3.44,3.44,0,0,1-1.24-1.35A4.06,4.06,0,0,1,72,57.72a4,4,0,0,1,.47-1.92,3.49,3.49,0,0,1,1.28-1.36,3.38,3.38,0,0,1,1.8-.49A3.41,3.41,0,0,1,77.36,54.44Zm-.49,5.73a2.61,2.61,0,0,0,.92-1,3.24,3.24,0,0,0,0-2.89,2.57,2.57,0,0,0-.92-1,2.42,2.42,0,0,0-1.32-.38,2.45,2.45,0,0,0-1.32.38,2.52,2.52,0,0,0-.93,1,3.24,3.24,0,0,0,0,2.89,2.56,2.56,0,0,0,.93,1,2.54,2.54,0,0,0,2.64,0Z" transform="translate(0 -0.81)"/><path class="cls-1" d="M85.69,54.34a2.92,2.92,0,0,1,1.13,1.18,4,4,0,0,1,.4,1.87v3.52a.48.48,0,0,1-.14.36.43.43,0,0,1-.34.15.49.49,0,0,1-.36-.15.52.52,0,0,1-.14-.36V57.39a2.49,2.49,0,0,0-.63-1.84A2.23,2.23,0,0,0,84,54.92a2.47,2.47,0,0,0-1.13.26,2,2,0,0,0-.8.71,1.86,1.86,0,0,0-.29,1v4a.53.53,0,0,1-.14.37.45.45,0,0,1-.35.14.48.48,0,0,1-.35-.14.49.49,0,0,1-.14-.37V54.54a.51.51,0,0,1,.14-.38.45.45,0,0,1,.35-.15.43.43,0,0,1,.35.15.56.56,0,0,1,.14.38V55a3,3,0,0,1,1-.78,3,3,0,0,1,1.3-.29A3.29,3.29,0,0,1,85.69,54.34Z" transform="translate(0 -0.81)"/><path class="cls-1" d="M94.12,54.44A3.49,3.49,0,0,1,95.4,55.8a4,4,0,0,1,.46,1.92v3.19a.52.52,0,0,1-.14.36.46.46,0,0,1-.36.15.48.48,0,0,1-.35-.14.49.49,0,0,1-.14-.37v-.82a3.26,3.26,0,0,1-4.41.9,3.51,3.51,0,0,1-1.24-1.35,4.06,4.06,0,0,1-.45-1.92,4,4,0,0,1,.46-1.92,3.49,3.49,0,0,1,1.28-1.36,3.57,3.57,0,0,1,3.61,0Zm-.49,5.73a2.54,2.54,0,0,0,.92-1,3.24,3.24,0,0,0,0-2.89,2.5,2.5,0,0,0-.92-1,2.4,2.4,0,0,0-1.32-.38,2.45,2.45,0,0,0-1.32.38,2.6,2.6,0,0,0-.93,1,3.33,3.33,0,0,0,0,2.89,2.64,2.64,0,0,0,.93,1,2.44,2.44,0,0,0,1.32.37A2.39,2.39,0,0,0,93.63,60.17Z" transform="translate(0 -0.81)"/><path class="cls-1" d="M102.52,54.43a3.26,3.26,0,0,1,1.26,1.34,4,4,0,0,1,.46,1.95v2.77a4.25,4.25,0,0,1-.45,2,3.46,3.46,0,0,1-1.26,1.39,3.37,3.37,0,0,1-1.81.5A3.82,3.82,0,0,1,99,64a3.64,3.64,0,0,1-1.28-1.09.49.49,0,0,1-.12-.32.45.45,0,0,1,.18-.35A.47.47,0,0,1,98,62.1a.49.49,0,0,1,.23.06.45.45,0,0,1,.18.15,2.52,2.52,0,0,0,1,.8,3,3,0,0,0,1.33.29A2.35,2.35,0,0,0,102,63a2.44,2.44,0,0,0,.91-1,3.41,3.41,0,0,0,.33-1.53v-.61a2.88,2.88,0,0,1-1.08,1.21,3,3,0,0,1-1.6.44A3.31,3.31,0,0,1,98.82,61a3.25,3.25,0,0,1-1.23-1.34,4.27,4.27,0,0,1-.44-2,4,4,0,0,1,.46-1.95,3.35,3.35,0,0,1,1.27-1.34,3.69,3.69,0,0,1,3.64,0Zm-.5,5.75a2.41,2.41,0,0,0,.92-1,3.37,3.37,0,0,0,0-2.91,2.43,2.43,0,0,0-.92-1,2.58,2.58,0,0,0-2.66,0,2.5,2.5,0,0,0-.92,1,3.37,3.37,0,0,0,0,2.91,2.57,2.57,0,0,0,3.58,1Z" transform="translate(0 -0.81)"/><path class="cls-1" d="M110.55,54.41a3.1,3.1,0,0,1,1.12,1.3,4.19,4.19,0,0,1,.41,1.88.48.48,0,0,1-.13.34.44.44,0,0,1-.33.13h-5.16a2.76,2.76,0,0,0,.82,1.8,2.48,2.48,0,0,0,1.79.69,2.53,2.53,0,0,0,.92-.17,2.23,2.23,0,0,0,.75-.42.53.53,0,0,1,.34-.14.47.47,0,0,1,.28.11.51.51,0,0,1,.17.37.44.44,0,0,1-.14.31,3.56,3.56,0,0,1-1.07.63,3.66,3.66,0,0,1-1.25.25,3.52,3.52,0,0,1-1.83-.48A3.37,3.37,0,0,1,106,59.67a4,4,0,0,1-.46-2,4.24,4.24,0,0,1,.43-1.95,3.17,3.17,0,0,1,1.19-1.34,3.14,3.14,0,0,1,1.72-.48A3.07,3.07,0,0,1,110.55,54.41Zm-3.28,1.11a2.76,2.76,0,0,0-.78,1.68h4.67a2.71,2.71,0,0,0-.72-1.68,2.05,2.05,0,0,0-1.57-.64A2.15,2.15,0,0,0,107.27,55.52Z" transform="translate(0 -0.81)"/><path class="cls-1" d="M122.16,54.31a2.5,2.5,0,0,1,.91,1.08,3.87,3.87,0,0,1,.32,1.62v3.9a.52.52,0,0,1-.13.37.48.48,0,0,1-.35.14.49.49,0,0,1-.36-.14.53.53,0,0,1-.14-.37V57a2.4,2.4,0,0,0-.46-1.53,1.54,1.54,0,0,0-1.22-.56,1.67,1.67,0,0,0-1.31.57,2.14,2.14,0,0,0-.48,1.49v3.93a.52.52,0,0,1-.13.37.48.48,0,0,1-.35.14.48.48,0,0,1-.5-.51V57a2.35,2.35,0,0,0-.47-1.53,1.51,1.51,0,0,0-1.22-.56,1.7,1.7,0,0,0-1.3.56,2,2,0,0,0-.51,1.42v4a.52.52,0,0,1-.13.37.48.48,0,0,1-.35.14.49.49,0,0,1-.36-.14.53.53,0,0,1-.14-.37V54.54a.56.56,0,0,1,.14-.38A.46.46,0,0,1,114,54a.45.45,0,0,1,.35.15.55.55,0,0,1,.13.38v.3a2.5,2.5,0,0,1,.85-.67,2.4,2.4,0,0,1,1.07-.24,2.38,2.38,0,0,1,2.15,1.29,2.63,2.63,0,0,1,2.3-1.29A2.41,2.41,0,0,1,122.16,54.31Z" transform="translate(0 -0.81)"/><path class="cls-1" d="M130,54.41a3.19,3.19,0,0,1,1.13,1.3,4.19,4.19,0,0,1,.4,1.88.44.44,0,0,1-.13.34.42.42,0,0,1-.33.13h-5.15a2.79,2.79,0,0,0,.81,1.8,2.49,2.49,0,0,0,1.79.69,2.58,2.58,0,0,0,.93-.17,2.18,2.18,0,0,0,.74-.42.56.56,0,0,1,.35-.14.46.46,0,0,1,.44.48.41.41,0,0,1-.14.31,3.56,3.56,0,0,1-1.07.63,3.61,3.61,0,0,1-1.25.25,3.46,3.46,0,0,1-1.82-.48,3.32,3.32,0,0,1-1.26-1.34,4.15,4.15,0,0,1-.45-2,4.37,4.37,0,0,1,.42-1.95,3.24,3.24,0,0,1,1.19-1.34,3.17,3.17,0,0,1,1.73-.48A3,3,0,0,1,130,54.41Zm-3.28,1.11a2.87,2.87,0,0,0-.78,1.68h4.67a2.65,2.65,0,0,0-.71-1.68,2.07,2.07,0,0,0-1.57-.64A2.17,2.17,0,0,0,126.67,55.52Z" transform="translate(0 -0.81)"/><path class="cls-1" d="M137.82,54.34a2.84,2.84,0,0,1,1.12,1.18,3.88,3.88,0,0,1,.41,1.87v3.52a.48.48,0,0,1-.14.36.45.45,0,0,1-.34.15.46.46,0,0,1-.36-.15.52.52,0,0,1-.14-.36V57.39a2.49,2.49,0,0,0-.63-1.84,2.23,2.23,0,0,0-1.65-.63,2.44,2.44,0,0,0-1.13.26,2,2,0,0,0-.8.71,1.78,1.78,0,0,0-.29,1v4a.53.53,0,0,1-.14.37.47.47,0,0,1-.35.14.52.52,0,0,1-.36-.14.53.53,0,0,1-.14-.37V54.54a.56.56,0,0,1,.14-.38.49.49,0,0,1,.36-.15.44.44,0,0,1,.35.15.56.56,0,0,1,.14.38V55a3,3,0,0,1,1-.78,3,3,0,0,1,1.3-.29A3.32,3.32,0,0,1,137.82,54.34Z" transform="translate(0 -0.81)"/><path class="cls-1" d="M144.67,60.53a.53.53,0,0,1,.13.38.49.49,0,0,1-.15.36.54.54,0,0,1-.39.15H144a2.23,2.23,0,0,1-1.22-.35,2.41,2.41,0,0,1-.83-.93,2.89,2.89,0,0,1-.3-1.33V55.19h-.83a.39.39,0,0,1-.32-.13.4.4,0,0,1-.13-.31.45.45,0,0,1,.13-.34.42.42,0,0,1,.32-.12h.83v-2.1a.53.53,0,0,1,.13-.38.45.45,0,0,1,.35-.15.46.46,0,0,1,.36.15.54.54,0,0,1,.14.38v2.1h1.44a.45.45,0,0,1,.33.12.49.49,0,0,1,.12.34.43.43,0,0,1-.12.31.42.42,0,0,1-.33.13h-1.44v3.62a1.7,1.7,0,0,0,.38,1.13,1.28,1.28,0,0,0,1,.44h.34A.4.4,0,0,1,144.67,60.53Z" transform="translate(0 -0.81)"/><path class="cls-1" d="M153.27,54.25a2.65,2.65,0,0,1,1,.85.7.7,0,0,1,.1.31.41.41,0,0,1-.21.36.36.36,0,0,1-.24.07.59.59,0,0,1-.45-.2,2.13,2.13,0,0,0-1.73-.76,1.91,1.91,0,0,0-1.13.3.91.91,0,0,0-.43.77.92.92,0,0,0,.4.78,3.59,3.59,0,0,0,1.42.46,4,4,0,0,1,2,.8,1.79,1.79,0,0,1,.59,1.36,1.9,1.9,0,0,1-.35,1.11,2.39,2.39,0,0,1-1,.76,3.61,3.61,0,0,1-1.43.27,4.2,4.2,0,0,1-1.53-.29,2.91,2.91,0,0,1-1.19-.8.47.47,0,0,1-.13-.31.5.5,0,0,1,.21-.4.46.46,0,0,1,.69.06,2,2,0,0,0,.82.59,3.15,3.15,0,0,0,1.13.2,2.28,2.28,0,0,0,1.35-.33,1,1,0,0,0,.47-.85,1,1,0,0,0-.45-.81,3.47,3.47,0,0,0-1.43-.49,3.77,3.77,0,0,1-1.89-.75,1.65,1.65,0,0,1-.63-1.29,1.81,1.81,0,0,1,.73-1.53,3,3,0,0,1,1.82-.54A3.45,3.45,0,0,1,153.27,54.25Z" transform="translate(0 -0.81)"/><path class="cls-1" d="M161.35,54.43a3.49,3.49,0,0,1,1.28,1.36,4.24,4.24,0,0,1,0,3.86A3.42,3.42,0,0,1,161.35,61a3.53,3.53,0,0,1-1.83.49,3.59,3.59,0,0,1-1.84-.49,3.4,3.4,0,0,1-1.28-1.35,4.2,4.2,0,0,1,0-3.86,3.42,3.42,0,0,1,1.28-1.36,3.58,3.58,0,0,1,1.84-.48A3.52,3.52,0,0,1,161.35,54.43Zm-3.17.83a2.55,2.55,0,0,0-.94,1,3.26,3.26,0,0,0,0,2.9,2.59,2.59,0,0,0,.94,1,2.61,2.61,0,0,0,2.68,0,2.64,2.64,0,0,0,.93-1,3.35,3.35,0,0,0,0-2.9,2.6,2.6,0,0,0-.93-1,2.61,2.61,0,0,0-2.68,0Z" transform="translate(0 -0.81)"/><path class="cls-1" d="M166.87,52.39a2.62,2.62,0,0,0-.43,1.58v.31H168a.45.45,0,0,1,.33.13.49.49,0,0,1,.13.33.44.44,0,0,1-.13.32.42.42,0,0,1-.33.13h-1.54v5.7a.56.56,0,0,1-.14.39.52.52,0,0,1-.38.14.48.48,0,0,1-.34-.14.56.56,0,0,1-.13-.39v-5.7h-.83a.42.42,0,0,1-.33-.13.44.44,0,0,1-.12-.32.48.48,0,0,1,.12-.33.45.45,0,0,1,.33-.13h.83V54a3.57,3.57,0,0,1,.7-2.32,2.44,2.44,0,0,1,2-.87.49.49,0,0,1,.36.14.42.42,0,0,1,.14.34.44.44,0,0,1-.14.34.48.48,0,0,1-.36.13A1.47,1.47,0,0,0,166.87,52.39Z" transform="translate(0 -0.81)"/><path class="cls-1" d="M173.22,60.53a.57.57,0,0,1,.13.37.51.51,0,0,1-.16.37.53.53,0,0,1-.39.15h-.27a2.23,2.23,0,0,1-1.22-.35,2.36,2.36,0,0,1-.84-.93,2.78,2.78,0,0,1-.31-1.33V55.19h-.83a.42.42,0,0,1-.33-.13.41.41,0,0,1-.13-.32.44.44,0,0,1,.13-.33.45.45,0,0,1,.33-.13h.83V52.19a.54.54,0,0,1,.14-.38.45.45,0,0,1,.35-.15.46.46,0,0,1,.36.15.5.5,0,0,1,.15.38v2.09h1.45a.45.45,0,0,1,.33.13.48.48,0,0,1,.12.33.44.44,0,0,1-.12.32.42.42,0,0,1-.33.13h-1.45v3.62a1.65,1.65,0,0,0,.38,1.13,1.28,1.28,0,0,0,1,.44h.35A.43.43,0,0,1,173.22,60.53Z" transform="translate(0 -0.81)"/><path class="cls-1" d="M183,54.13a.46.46,0,0,1,.12.33.78.78,0,0,1,0,.28l-2,6.34a.55.55,0,0,1-.18.24.43.43,0,0,1-.29.1.47.47,0,0,1-.3-.1.37.37,0,0,1-.17-.24l-1.55-5.39L177,61.08a.42.42,0,0,1-.18.25.47.47,0,0,1-.28.09.43.43,0,0,1-.29-.1.57.57,0,0,1-.19-.24l-2-6.34a1,1,0,0,1,0-.28c0-.3.14-.45.41-.45a.49.49,0,0,1,.49.4l1.65,5.28,1.52-5.27a.64.64,0,0,1,.18-.3.47.47,0,0,1,.31-.11.48.48,0,0,1,.32.11.55.55,0,0,1,.17.3l1.49,5.24,1.63-5.25a.49.49,0,0,1,.48-.4A.42.42,0,0,1,183,54.13Z" transform="translate(0 -0.81)"/><path class="cls-1" d="M189.29,54.44a3.45,3.45,0,0,1,1.29,1.36,3.9,3.9,0,0,1,.47,1.92V60.9a.49.49,0,0,1-.14.37.46.46,0,0,1-.36.15.52.52,0,0,1-.36-.14.54.54,0,0,1-.14-.38v-.81a3.05,3.05,0,0,1-1.15,1,3.15,3.15,0,0,1-1.53.38,3.24,3.24,0,0,1-1.77-.5,3.46,3.46,0,0,1-1.25-1.35,4,4,0,0,1-.46-1.92,3.9,3.9,0,0,1,.47-1.92,3.57,3.57,0,0,1,4.93-1.36Zm-.49,5.73a2.64,2.64,0,0,0,.93-1,3.24,3.24,0,0,0,0-2.89,2.6,2.6,0,0,0-.93-1,2.55,2.55,0,0,0-3.6,1,3.16,3.16,0,0,0,0,2.89,2.52,2.52,0,0,0,.94,1,2.58,2.58,0,0,0,2.66,0Z" transform="translate(0 -0.81)"/><path class="cls-1" d="M197,54.08a.47.47,0,0,1,.32.42.33.33,0,0,1,0,.12.39.39,0,0,1-.16.26.6.6,0,0,1-.3.07l-.4,0h-.31a2.31,2.31,0,0,0-1.58.54,1.78,1.78,0,0,0-.61,1.41v4a.5.5,0,0,1-.13.38.49.49,0,0,1-.36.14.46.46,0,0,1-.36-.14.5.5,0,0,1-.13-.38V54.53a.52.52,0,0,1,.13-.38.46.46,0,0,1,.36-.14.49.49,0,0,1,.36.14.52.52,0,0,1,.13.38v.59a2.66,2.66,0,0,1,1-.88,2.72,2.72,0,0,1,1.25-.31A2,2,0,0,1,197,54.08Z" transform="translate(0 -0.81)"/><path class="cls-1" d="M203.09,54.41a3.14,3.14,0,0,1,1.14,1.3,4.19,4.19,0,0,1,.41,1.88.48.48,0,0,1-.13.34.45.45,0,0,1-.34.13H199a2.76,2.76,0,0,0,.82,1.8,2.51,2.51,0,0,0,1.81.69,2.55,2.55,0,0,0,.93-.17,2.14,2.14,0,0,0,.75-.42.58.58,0,0,1,.35-.14.46.46,0,0,1,.45.48.41.41,0,0,1-.14.31,3.5,3.5,0,0,1-1.08.63,3.71,3.71,0,0,1-1.26.25,3.57,3.57,0,0,1-1.85-.48,3.42,3.42,0,0,1-1.27-1.34,4.15,4.15,0,0,1-.45-2,4.24,4.24,0,0,1,.43-1.95,3.26,3.26,0,0,1,1.2-1.34A3.2,3.2,0,0,1,201.4,54,3.08,3.08,0,0,1,203.09,54.41Zm-3.31,1.11a2.82,2.82,0,0,0-.79,1.67h4.72a2.7,2.7,0,0,0-.72-1.67,2.09,2.09,0,0,0-1.59-.64A2.19,2.19,0,0,0,199.78,55.52Z" transform="translate(0 -0.81)"/></g><g id="Layer_1" data-name="Layer 1"><polygon class="cls-2" points="183 26.21 183 3.46 161.84 26.21 183 26.21"/><polygon class="cls-3" points="183 26.21 183 3.46 204.16 26.21 183 26.21"/><polygon class="cls-4" points="204.16 26.21 204.16 43.11 183 26.21 204.16 26.21"/><polygon class="cls-5" points="161.38 26.21 161.38 3.46 140.22 26.21 161.38 26.21"/><polygon class="cls-6" points="161.38 26.21 161.38 3.46 182.54 26.21 161.38 26.21"/><polygon class="cls-7" points="182.54 26.21 182.54 43.11 161.38 26.21 182.54 26.21"/><polygon class="cls-8" points="140.22 26.21 140.22 43.11 161.38 26.21 140.22 26.21"/></g><g id="micad"><path class="cls-9" d="M37.3,20.06q2.79,2.86,2.79,8V42.42a2.48,2.48,0,0,1-.73,1.83,2.88,2.88,0,0,1-3.83,0,2.46,2.46,0,0,1-.75-1.83V28.05a6.29,6.29,0,0,0-1.59-4.65,5.76,5.76,0,0,0-4.25-1.58,5.91,5.91,0,0,0-4.46,1.81,6.34,6.34,0,0,0-1.75,4.62V42.42A2.48,2.48,0,0,1,22,44.25a2.6,2.6,0,0,1-1.93.73,2.61,2.61,0,0,1-1.9-.73,2.47,2.47,0,0,1-.76-1.83V28.05a6.29,6.29,0,0,0-1.59-4.65,5.73,5.73,0,0,0-4.25-1.58,6,6,0,0,0-4.51,1.81,6.37,6.37,0,0,0-1.74,4.62V42.42a2.52,2.52,0,0,1-.73,1.83A2.6,2.6,0,0,1,2.66,45a2.59,2.59,0,0,1-1.9-.73A2.43,2.43,0,0,1,0,42.42V20.06A2.41,2.41,0,0,1,.76,18.2a2.66,2.66,0,0,1,1.9-.7,2.67,2.67,0,0,1,1.88.67A2.56,2.56,0,0,1,5.32,20a9.67,9.67,0,0,1,3.23-2,11.27,11.27,0,0,1,4.07-.72,10.71,10.71,0,0,1,4.77,1,8.93,8.93,0,0,1,3.46,2.93,10.94,10.94,0,0,1,3.92-2.91A12.6,12.6,0,0,1,30,17.2,9.75,9.75,0,0,1,37.3,20.06Z" transform="translate(0 -0.81)"/><path class="cls-9" d="M43.23,18.15a2.7,2.7,0,0,1,1.91-.7,2.66,2.66,0,0,1,1.93.7A2.49,2.49,0,0,1,47.8,20V42.37a2.52,2.52,0,0,1-.73,1.83,2.6,2.6,0,0,1-1.93.73,2.63,2.63,0,0,1-1.91-.73,2.46,2.46,0,0,1-.75-1.83V20A2.43,2.43,0,0,1,43.23,18.15Z" transform="translate(0 -0.81)"/><path class="cls-9" d="M73.64,21.77a1.82,1.82,0,0,1,.52,1.3A2.19,2.19,0,0,1,73,24.93a2.06,2.06,0,0,1-1.2.35,2.69,2.69,0,0,1-2-.9,8.18,8.18,0,0,0-2.84-2,9.21,9.21,0,0,0-3.52-.63,8.65,8.65,0,0,0-6.51,2.58,9.47,9.47,0,0,0-2.51,6.86,9.81,9.81,0,0,0,1.18,4.85,8.43,8.43,0,0,0,3.28,3.34,9.51,9.51,0,0,0,4.82,1.21,8.9,8.9,0,0,0,5.74-1.76,3.32,3.32,0,0,1,1.93-.7,2.26,2.26,0,0,1,1.35.45,2.31,2.31,0,0,1,1,1.81,1.85,1.85,0,0,1-.62,1.35,13.53,13.53,0,0,1-9.39,3.37,15,15,0,0,1-7.4-1.81,13.21,13.21,0,0,1-5.14-5,14,14,0,0,1-1.85-7.11A14.42,14.42,0,0,1,51.09,24a12.79,12.79,0,0,1,5-5,14.86,14.86,0,0,1,7.3-1.78A13.15,13.15,0,0,1,73.64,21.77Z" transform="translate(0 -0.81)"/><path class="cls-9" d="M96.34,19.08a13.81,13.81,0,0,1,5.16,5,13.62,13.62,0,0,1,1.91,7.11V42.42a2.47,2.47,0,0,1-.76,1.83,2.84,2.84,0,0,1-3.8,0,2.43,2.43,0,0,1-.76-1.83V40.56a12.75,12.75,0,0,1-4.43,3.36,13.71,13.71,0,0,1-12.44-.6,12.87,12.87,0,0,1-4.79-5,14.52,14.52,0,0,1-1.75-7.11,13.69,13.69,0,0,1,1.88-7.11,13.51,13.51,0,0,1,5.18-5,14.9,14.9,0,0,1,7.33-1.83A14.57,14.57,0,0,1,96.34,19.08Zm-2.55,20.3A8.85,8.85,0,0,0,97.1,36a9.61,9.61,0,0,0,1.2-4.8,9.76,9.76,0,0,0-1.2-4.82A8.77,8.77,0,0,0,93.79,23a9.67,9.67,0,0,0-9.44,0A9,9,0,0,0,81,26.39a9.67,9.67,0,0,0-1.22,4.82A9.52,9.52,0,0,0,81,36a9.08,9.08,0,0,0,3.34,3.37,9.67,9.67,0,0,0,9.44,0Z" transform="translate(0 -0.81)"/><path class="cls-9" d="M132.34,6.39a2.52,2.52,0,0,1,.71,1.86V31.16a13.87,13.87,0,0,1-1.86,7.11,13.64,13.64,0,0,1-5.06,5A14,14,0,0,1,119,45.13a14.33,14.33,0,0,1-7.17-1.83,13.41,13.41,0,0,1-5.08-5,14.06,14.06,0,0,1-1.84-7.11,14.83,14.83,0,0,1,1.71-7.11,12.86,12.86,0,0,1,4.7-5,12.65,12.65,0,0,1,6.66-1.8,12.83,12.83,0,0,1,5.52,1.2,12.53,12.53,0,0,1,4.33,3.37V8.25a2.43,2.43,0,0,1,.75-1.86,2.86,2.86,0,0,1,3.75,0Zm-8.71,33a8.62,8.62,0,0,0,3.24-3.4,10.39,10.39,0,0,0,0-9.62A8.72,8.72,0,0,0,123.63,23a9,9,0,0,0-12.5,3.36,10.24,10.24,0,0,0,0,9.62,9.11,9.11,0,0,0,12.5,3.4Z" transform="translate(0 -0.81)"/><path class="cls-1" d="M47.56,9.7a3.18,3.18,0,0,1,0,4.67,3.49,3.49,0,0,1-4.85,0,3.2,3.2,0,0,1,0-4.67,3.49,3.49,0,0,1,4.85,0Z" transform="translate(0 -0.81)"/></g><g id="Layer_4" data-name="Layer 4"><path class="cls-10" d="M152.21,10.6s17.53-1.58,18-1.27a2.52,2.52,0,0,1,1.67,2,3.52,3.52,0,0,1-1,3.81c-1.09,1.12-4.63,2.48-8.37,3.53-8,2.24-9.52,1.92-10.8,1.59A5.6,5.6,0,0,1,148,16.84c-.95-2.2-.22-3,.19-3.7a13.47,13.47,0,0,1,3.1-2.8" transform="translate(0 -0.81)"/><path class="cls-11" d="M152.13,10.26S169.66,8.69,170.18,9a2.87,2.87,0,0,1,1.71,2.14,3.31,3.31,0,0,1-1.07,3.66c-1.09,1.12-4.63,2.48-8.37,3.52-8,2.24-9.53,1.92-10.81,1.59A4.87,4.87,0,0,1,148,16.85a3.91,3.91,0,0,1,.1-4,12.83,12.83,0,0,1,3.1-2.8" transform="translate(0 -0.81)"/><path class="cls-12" d="M151.18,10c-7.35,6.38,1.74,10.23.46,9.9A4.87,4.87,0,0,1,148,16.85a3.91,3.91,0,0,1,.1-4,12.83,12.83,0,0,1,3.1-2.8" transform="translate(0 -0.81)"/><path class="cls-13" d="M170.77,9.64c-.17-1.21-1.56-2.6-3.85-3.48S157.5,9.5,157.5,9.5s-4.22-5.06-5.21-3.37-1.11,4.31-1.31,5.14-.33,1.13,1.38,4.18,4.46,2.79,6.33,2.83c1.51,0,8.49-2.3,8.94-2.45a5.8,5.8,0,0,0,3-2.15,6.08,6.08,0,0,0,.11-4" transform="translate(0 -0.81)"/><path class="cls-14" d="M170.77,9.64c-.17-1.21-4.72-3.6-9.17.7-1.7,1.65-4.78,7.9-2.91,7.94,1.51,0,8.49-2.3,8.94-2.45a5.8,5.8,0,0,0,3-2.15,6.08,6.08,0,0,0,.11-4" transform="translate(0 -0.81)"/><path class="cls-15" d="M169.9,7.14c0-.12-.28-.71-.45-1.15s-.56-1.07-.58-1.13a11.05,11.05,0,0,0-.73-.84c-.12-.13-1.33-1-1.33-1l-4.34-.83-8.22,4.52L157,8.91l6.68-3L170,7.69" transform="translate(0 -0.81)"/><polyline class="cls-16" points="162.86 0.75 163.07 0.66 162.21 0.19 161.12 0.1 159.71 0.18 157.32 0.83 155.05 2.27 153.31 4 154.43 4.58 162.69 0.77"/><path class="cls-17" d="M170.77,9.65a6.08,6.08,0,0,1-.11,4,5.86,5.86,0,0,1-3,2.15c-.45.14-7.43,2.49-8.94,2.45-1.15,0-.42-2.4.69-4.61,2.28-1.59,4.8-3.81,7.69-4.78a5.35,5.35,0,0,1,2.66-.36A1.93,1.93,0,0,1,170.77,9.65Z" transform="translate(0 -0.81)"/><path class="cls-18" d="M152,6.49a11,11,0,0,1,3.32-3.72,12.24,12.24,0,0,1,2.8-1.35A8.2,8.2,0,0,1,161.34,1a4.3,4.3,0,0,1,1.9.61,7.6,7.6,0,0,0-2.77-.44,9.23,9.23,0,0,0-3.17.92,16.49,16.49,0,0,0-3,2.08c-.31.23-.63.59-.56.84s.45-.06.82-.26,3.12-2.11,3.72-2.38a17.33,17.33,0,0,1,3.53-1,7.19,7.19,0,0,1,2.89.38A8.53,8.53,0,0,1,168,3.82a6.28,6.28,0,0,1,1.45,2.35A5.92,5.92,0,0,0,167.79,4a8.62,8.62,0,0,0-8.47.16A13.55,13.55,0,0,0,156,6.54c-.22.32-.53.66-.19,1.15s.87.24,1.29-.05,2.11-1.35,2.88-1.81a10.5,10.5,0,0,1,4-1.16,7.46,7.46,0,0,1,4.3.93,5.35,5.35,0,0,1,2.2,2.75,13.94,13.94,0,0,1,.58,2.81,6.8,6.8,0,0,1-.37,2.55c-.19.32.06-1.1-.1-2.58a4.2,4.2,0,0,0-2.4-3.64c-4.63-1.87-8.72,2.55-9.21,3a3.55,3.55,0,0,1-3,1.11,3,3,0,0,1-2.49-1.71c-.35-.91.1-2.18-.21-2.31s-1.09.67-1.54.3c-.27-.21.07-1.12.18-1.4" transform="translate(0 -0.81)"/><path class="cls-19" d="M151.94,6.32a11.13,11.13,0,0,1,3.32-3.72,12.44,12.44,0,0,1,2.8-1.35,8,8,0,0,1,3.23-.41,4.33,4.33,0,0,1,1.9.6A7.63,7.63,0,0,0,160.42,1a9.12,9.12,0,0,0-3.16.92,16.59,16.59,0,0,0-3,2.07c-.3.23-.62.59-.55.84s.45-.06.81-.26,3.12-2.11,3.72-2.38a16.71,16.71,0,0,1,3.53-1,7.31,7.31,0,0,1,2.89.37A8.62,8.62,0,0,1,168,3.64,6.53,6.53,0,0,1,169.45,6a6,6,0,0,0-1.71-2.14,8.59,8.59,0,0,0-8.47.18A12.84,12.84,0,0,0,156,6.37c-.22.32-.53.66-.18,1.15s.86.24,1.28,0,2.1-1.34,2.89-1.81a10.33,10.33,0,0,1,4-1.16,7.44,7.44,0,0,1,4.3.93,5.37,5.37,0,0,1,2.2,2.73,14.82,14.82,0,0,1,.66,2.81,7.7,7.7,0,0,1-.35,2.69c-.18.32,0-1.24-.11-2.71a4.23,4.23,0,0,0-2.49-3.63c-4.81-1.87-8.73,2.55-9.21,3a3.55,3.55,0,0,1-3,1.11,3,3,0,0,1-2.49-1.71c-.35-.91.1-2.19-.21-2.31s-1.09.68-1.55.3c-.26-.21.08-1.12.19-1.4" transform="translate(0 -0.81)"/><path class="cls-20" d="M157.75,9.12A25,25,0,0,1,161.26,7c1.18-.55,3.38-1.53.82-1a10.4,10.4,0,0,0-5.14,3.2C156.11,10.09,156.69,9.91,157.75,9.12Z" transform="translate(0 -0.81)"/><path class="cls-21" d="M166.33,5.72c.82-.19-.76-.59-1.42-.37S165.5,5.92,166.33,5.72Z" transform="translate(0 -0.81)"/><path class="cls-22" d="M155.29,5.55a24.87,24.87,0,0,1,3.28-2c1.09-.5,3.15-1.43.76-.89a9.58,9.58,0,0,0-4.79,3C153.77,6.46,154.31,6.29,155.29,5.55Z" transform="translate(0 -0.81)"/><path class="cls-23" d="M163.3,2.31c.74-.26-.77-.47-1.34-.2S162.56,2.58,163.3,2.31Z" transform="translate(0 -0.81)"/><path class="cls-24" d="M148.91,17.61a12.54,12.54,0,0,1-.81-1.84c-.19-.6-.53-1.73-.41-.47A5.36,5.36,0,0,0,148.9,18C149.27,18.47,149.22,18.18,148.91,17.61Z" transform="translate(0 -0.81)"/><path class="cls-24" d="M148,13.47c0-.4-.35.27-.31.6S148,13.87,148,13.47Z" transform="translate(0 -0.81)"/><path class="cls-24" d="M149.8,18.8c-.4-.11.19.42.51.48S150.2,18.91,149.8,18.8Z" transform="translate(0 -0.81)"/><path class="cls-25" d="M161.79,1.09l.42.07a4,4,0,0,0-.49,0,15.34,15.34,0,0,0-3.5,1.12c-.91.43-3.31,2-3.75,2.27s-.75.51-.82.26a.53.53,0,0,1,.12-.4.42.42,0,0,0-.05.29c.07.26.45-.06.81-.26a36.63,36.63,0,0,1,3.74-2.31,18.58,18.58,0,0,1,3.51-1.08Z" transform="translate(0 -0.81)"/><path class="cls-26" d="M167.66,5.12l-.41,0a7.61,7.61,0,0,0-3.34-.48,10.43,10.43,0,0,0-4,1.17c-.77.45-2.6,1.61-2.88,1.8s-.94.55-1.29.06a.72.72,0,0,1,0-.89.66.66,0,0,0,.06.78c.34.5.86.24,1.28,0s2.1-1.34,2.89-1.81a10.33,10.33,0,0,1,4-1.16A7.71,7.71,0,0,1,167.66,5.12Z" transform="translate(0 -0.81)"/><path class="cls-27" d="M169.46,8l-.14,0a3.44,3.44,0,0,0-1.15-.72c-4.81-1.87-8.73,2.55-9.21,3a3.52,3.52,0,0,1-3,1.12,3,3,0,0,1-2.49-1.71c-.35-.91.11-2.19-.21-2.31-.16-.07-.42.08-.69.21l.09-.12c.27-.13.51-.26.67-.2.31.13-.15,1.41.2,2.31a3,3,0,0,0,2.5,1.71,3.55,3.55,0,0,0,3-1.11c.47-.44,4.39-4.87,9.21-3A3.48,3.48,0,0,1,169.46,8Z" transform="translate(0 -0.81)"/><path class="cls-28" d="M158.69,18.29c-1.86-.05-4.62.21-6.33-2.84s-1.58-3.34-1.38-4.17c0,0,2.39,4.13,4.17,4.18a7.74,7.74,0,0,0,4.23-1.78C158.26,15.89,157.54,18.26,158.69,18.29Z" transform="translate(0 -0.81)"/></g></svg>