<?xml version="1.0" encoding="utf-8"?>
<!-- Generator: Adobe Illustrator 24.1.1, SVG Export Plug-In . SVG Version: 6.00 Build 0)  -->
<svg version="1.1" id="Layer_1" xmlns="http://www.w3.org/2000/svg" xmlns:xlink="http://www.w3.org/1999/xlink" x="0px" y="0px"
	 width="480px" height="125.5px" viewBox="0 0 480 125.5" style="enable-background:new 0 0 480 125.5;" xml:space="preserve">
<style type="text/css">
	.st0{display:none;}
	.st1{display:inline;}
	.st2{fill:#282687;}
	.st3{display:none;fill:#282687;}
	.st4{fill:#BBD035;}
</style>
<g id="Layer_1_1_" class="st0">
	<g class="st1">
		<path class="st2" d="M108.6,40.3c4.8,2.9,8.5,7.1,11.2,12.5s4,11.7,4,18.8V117c0,1.8-0.6,3.2-1.7,4.3c-1.1,1.1-2.6,1.7-4.3,1.7
			c-1.8,0-3.3-0.6-4.4-1.7c-1.2-1.1-1.7-2.5-1.7-4.3V71.7c0-7.5-1.9-13.4-5.8-17.7c-3.8-4.4-8.9-6.5-15.1-6.5
			c-6.6,0-12,2.2-16.1,6.6s-6.1,10.2-6,17.3v0.3v45.4c0,1.8-0.6,3.2-1.7,4.3s-2.6,1.7-4.3,1.7c-1.8,0-3.3-0.6-4.4-1.7
			c-1.2-1.1-1.7-2.5-1.7-4.3V71.7c0-7.5-1.9-13.4-5.8-17.7c-3.8-4.4-8.9-6.5-15.1-6.5c-6.5,0-11.9,2.2-16.1,6.5s-6.3,9.8-6.3,16.6
			v46.7c0,1.8-0.6,3.2-1.7,4.3s-2.5,1.7-4.3,1.7s-3.3-0.6-4.4-1.7c-1.2-1.1-1.7-2.5-1.7-4.3V43c0-1.8,0.6-3.3,1.7-4.4
			c1.2-1.2,2.6-1.7,4.4-1.7s3.2,0.6,4.3,1.7c1.1,1.2,1.7,2.6,1.7,4.4v3.5c2.9-3.4,6.4-6,10.5-7.8c4-1.8,8.4-2.8,13.2-2.8
			c5.8,0,11,1.3,15.6,3.9c4.6,2.6,8.3,6.3,11,11c3-4.7,7-8.4,11.9-11c4.9-2.6,10.4-3.9,16.5-3.9C98.3,35.9,103.8,37.4,108.6,40.3z"
			/>
		<path class="st3" d="M165.3,5.6c1.7,1.6,2.5,3.6,2.5,6.1c0,2.4-0.8,4.5-2.5,6.1c-1.7,1.7-3.7,2.5-6.2,2.5c-2.4,0-4.4-0.8-6.1-2.5
			c-1.6-1.7-2.4-3.7-2.4-6.1c0-2.5,0.8-4.6,2.5-6.1c1.7-1.6,3.7-2.4,6.2-2.4C161.6,3.3,163.6,4.1,165.3,5.6z"/>
		<path class="st2" d="M154.9,38.6c1.2-1.2,2.6-1.7,4.4-1.7c1.8,0,3.2,0.6,4.3,1.7c1.1,1.2,1.7,2.6,1.7,4.4v74
			c0,1.8-0.6,3.3-1.7,4.4c-1.1,1.2-2.5,1.7-4.3,1.7s-3.3-0.6-4.4-1.7c-1.2-1.2-1.7-2.6-1.7-4.4V43C153.1,41.2,153.7,39.8,154.9,38.6
			z"/>
		<path class="st2" d="M265.1,51.2c0.8,0.9,1.3,2,1.3,3.3c0,1.7-0.9,3.2-2.7,4.4c-0.9,0.6-1.9,0.9-3,0.9c-1.6,0-3.1-0.8-4.6-2.4
			c-3.2-3.5-6.6-6.1-10.4-7.8c-3.8-1.7-8-2.6-12.6-2.6c-5.8,0-10.9,1.4-15.5,4.2c-4.5,2.8-8,6.7-10.5,11.7s-3.7,10.7-3.7,17
			c0,6.2,1.3,11.8,3.9,16.8c2.6,5,6.3,8.9,11,11.7c4.7,2.8,10.1,4.3,16.2,4.3c8.4,0,15.2-2.3,20.3-6.8c1.4-1.2,2.8-1.7,4.3-1.7
			c1.3,0,2.4,0.4,3.5,1.3c1.5,1.3,2.2,2.7,2.2,4.3c0,1.4-0.5,2.5-1.6,3.5c-7.6,7-17.1,10.6-28.7,10.6c-8.2,0-15.6-1.9-22.1-5.8
			c-6.5-3.8-11.6-9.1-15.4-15.8c-3.7-6.7-5.6-14.1-5.6-22.3c0-8.4,1.8-16,5.4-22.6c3.6-6.7,8.5-11.9,14.8-15.7S225,36,232.9,36
			C246.2,36.1,256.9,41.1,265.1,51.2z"/>
		<path class="st2" d="M351.7,41.8c6.7,3.8,11.9,9.1,15.8,15.8c3.8,6.7,5.8,14.2,5.8,22.4v37.1c0,1.7-0.6,3.1-1.7,4.3
			c-1.2,1.2-2.6,1.7-4.4,1.7s-3.3-0.6-4.4-1.7c-1.2-1.1-1.7-2.5-1.7-4.3v-9.5c-3.7,5-8.4,9-14,11.9c-5.7,2.9-11.9,4.3-18.8,4.3
			c-8,0-15.2-1.9-21.7-5.8c-6.5-3.8-11.6-9.1-15.3-15.8c-3.7-6.7-5.6-14.1-5.6-22.3s1.9-15.7,5.8-22.4c3.8-6.7,9.1-12,15.8-15.8
			c6.7-3.8,14.1-5.8,22.3-5.8C337.6,36.1,345.1,38,351.7,41.8z M345.7,108.6c4.8-2.8,8.6-6.8,11.4-11.7c2.8-5,4.2-10.6,4.2-16.8
			c0-6.2-1.4-11.8-4.2-16.8c-2.8-5-6.6-8.9-11.4-11.8c-4.8-2.9-10.2-4.3-16.2-4.3s-11.4,1.4-16.3,4.3c-4.9,2.9-8.7,6.8-11.5,11.8
			s-4.2,10.6-4.2,16.8c0,6.2,1.4,11.8,4.2,16.8c2.8,5,6.6,8.9,11.5,11.7c4.9,2.8,10.3,4.3,16.3,4.3S340.8,111.5,345.7,108.6z"/>
		<path class="st2" d="M480,42.9V80c0,8.2-1.9,15.7-5.8,22.4c-3.8,6.7-9.1,12-15.8,15.8c-6.7,3.8-14.1,5.8-22.3,5.8
			c-8.2,0-15.6-1.9-22.3-5.8c-6.7-3.8-11.9-9.1-15.8-15.8c-3.8-6.7-5.8-14.2-5.8-22.4s1.9-15.6,5.6-22.3s8.8-11.9,15.3-15.8
			c6.5-3.8,13.7-5.8,21.7-5.8c6.8,0,13.1,1.4,18.8,4.3c5.7,2.9,10.4,6.9,14,11.9V6.1c0-1.8,0.6-3.3,1.7-4.4c1.2-1.2,2.6-1.7,4.4-1.7
			s3.2,0.6,4.3,1.7c1.1,1.2,1.7,2.6,1.7,4.4v35.3C480,41.8,480,42.2,480,42.9z M452.4,108.5c4.8-2.9,8.6-6.8,11.4-11.8
			s4.2-10.6,4.2-16.8c0-1.8-0.1-3.1-0.2-3.9c-0.1-0.2-0.2-0.5-0.2-0.8c-1.1-8.2-4.5-14.9-10.3-20.2s-12.9-7.9-21.2-7.9
			c-6,0-11.4,1.4-16.3,4.3c-4.9,2.8-8.7,6.8-11.5,11.7c-2.8,5-4.2,10.6-4.2,16.8s1.4,11.8,4.2,16.8c2.8,5,6.6,8.9,11.5,11.8
			s10.3,4.3,16.3,4.3S447.6,111.4,452.4,108.5z"/>
	</g>
	<g class="st1">
		<path class="st4" d="M165.3,5.6c8.1,7.6-4.4,20.5-12.2,12.3C145.2,10,157.3-2.1,165.3,5.6z"/>
	</g>
</g>
<g id="Layer_2_1_">
	<g>
		<path class="st2" d="M113,46.7c5.6,6,8.4,14.3,8.4,25.1v45.1c0,2.3-0.7,4.2-2.2,5.8c-1.5,1.5-3.4,2.3-5.8,2.3
			c-2.3,0-4.2-0.8-5.8-2.3c-1.5-1.5-2.3-3.4-2.3-5.8V71.8c0-6.4-1.6-11.3-4.8-14.6c-3.2-3.3-7.5-5-12.9-5c-5.5,0-10,1.9-13.5,5.7
			c-3.5,3.8-5.3,8.6-5.3,14.5v44.5c0,2.3-0.7,4.2-2.2,5.8c-1.5,1.5-3.4,2.3-5.8,2.3c-2.3,0-4.2-0.8-5.8-2.3
			c-1.5-1.5-2.3-3.4-2.3-5.8V71.8c0-6.4-1.6-11.3-4.8-14.6c-3.2-3.3-7.5-5-12.9-5c-5.6,0-10.1,1.9-13.6,5.7
			c-3.5,3.8-5.3,8.6-5.3,14.5v44.5c0,2.3-0.7,4.2-2.2,5.8c-1.5,1.5-3.4,2.3-5.8,2.3c-2.3,0-4.2-0.8-5.8-2.3
			c-1.5-1.5-2.3-3.4-2.3-5.8V46.7c0-2.4,0.8-4.4,2.3-5.8c1.5-1.5,3.4-2.2,5.8-2.2c2.3,0,4.2,0.7,5.7,2.1c1.5,1.4,2.3,3.3,2.4,5.6
			c2.7-2.7,6-4.9,9.8-6.4s7.9-2.3,12.3-2.3c5.4,0,10.2,1.1,14.4,3.2c4.3,2.2,7.8,5.2,10.5,9.2c3.2-3.9,7.1-6.9,11.8-9.1
			c4.7-2.2,10-3.3,15.8-3.3C100,37.7,107.4,40.7,113,46.7z"/>
		<path class="st2" d="M165,6.7c2,2,3.1,4.5,3.1,7.3s-1,5.3-3.1,7.3c-2,2-4.5,3.1-7.3,3.1s-5.3-1-7.3-3.1c-2-2.1-3.1-4.5-3.1-7.3
			s1-5.3,3.1-7.3c2-2.1,4.5-3.1,7.3-3.1S163,4.7,165,6.7z M151.9,40.7c1.5-1.5,3.4-2.2,5.8-2.2c2.4,0,4.4,0.7,5.8,2.2
			c1.5,1.5,2.2,3.4,2.2,5.8v70.2c0,2.3-0.7,4.2-2.2,5.8c-1.5,1.5-3.4,2.3-5.8,2.3c-2.3,0-4.2-0.8-5.8-2.3c-1.5-1.5-2.3-3.4-2.3-5.8
			V46.6C149.7,44.1,150.4,42.2,151.9,40.7z"/>
		<path class="st2" d="M264.9,52.1c1,1.2,1.6,2.5,1.6,4.1c0,2.3-1.2,4.3-3.5,5.8c-1.1,0.7-2.3,1.1-3.6,1.1c-2.4,0-4.5-0.9-6.1-2.8
			c-2.6-2.8-5.5-4.9-8.6-6.2s-6.7-2-10.6-2c-8.1,0-14.7,2.7-19.7,8.1s-7.6,12.6-7.6,21.5c0,5.7,1.2,10.8,3.5,15.2
			c2.4,4.5,5.7,8,9.9,10.5c4.3,2.5,9.1,3.8,14.6,3.8c7.1,0,12.9-1.8,17.3-5.5c2-1.5,3.9-2.2,5.8-2.2c1.5,0,2.8,0.5,4.1,1.4
			c2,1.7,3,3.6,3,5.7c0,1.6-0.6,3-1.9,4.3c-7.6,7-17,10.6-28.4,10.6c-8.3,0-15.8-1.9-22.4-5.7c-6.6-3.8-11.8-9-15.5-15.7
			s-5.6-14.1-5.6-22.3c0-8.4,1.8-16,5.4-22.6c3.6-6.7,8.7-11.9,15.2-15.6c6.5-3.7,13.9-5.6,22.1-5.6
			C246.4,37.9,256.7,42.6,264.9,52.1z"/>
		<path class="st2" d="M351.6,43.6c6.6,3.8,11.8,9.1,15.6,15.8c3.8,6.7,5.8,14.1,5.8,22.3v35.2c0,2.3-0.8,4.2-2.3,5.8
			c-1.5,1.5-3.4,2.3-5.8,2.3s-4.2-0.8-5.8-2.3c-1.5-1.5-2.3-3.4-2.3-5.8v-5.8c-3.7,4.5-8.1,8-13.4,10.6c-5.3,2.5-10.9,3.8-17,3.8
			c-7.6,0-14.4-1.9-20.6-5.7c-6.1-3.8-11-9-14.5-15.7S286,90,286,81.8s1.9-15.6,5.7-22.3c3.8-6.7,9-11.9,15.7-15.8
			c6.7-3.8,14.1-5.8,22.2-5.8C337.7,37.9,345,39.8,351.6,43.6z M343.9,107.3c4.3-2.6,7.6-6.1,10-10.6s3.6-9.5,3.6-15.1
			s-1.2-10.6-3.6-15.1s-5.8-8.1-10-10.6c-4.3-2.6-9-3.9-14.3-3.9s-10,1.3-14.3,3.9c-4.3,2.6-7.6,6.1-10.1,10.6s-3.7,9.6-3.7,15.1
			c0,5.6,1.2,10.6,3.7,15.1s5.8,8,10.1,10.6c4.3,2.6,9,3.9,14.3,3.9C334.8,111.2,339.6,109.9,343.9,107.3z"/>
		<path class="st2" d="M477.2,3.8c1.5,1.5,2.2,3.4,2.2,5.8v71.9c0,8.2-1.9,15.6-5.8,22.3c-3.8,6.7-9,11.9-15.6,15.8
			c-6.6,3.8-13.9,5.8-22,5.8s-15.5-1.9-22.2-5.8c-6.7-3.8-11.9-9.1-15.7-15.8c-3.8-6.7-5.7-14.1-5.7-22.3s1.8-15.6,5.3-22.3
			c3.5-6.7,8.4-11.9,14.5-15.7c6.2-3.8,13-5.7,20.6-5.7c6.1,0,11.8,1.3,17,3.8c5.3,2.5,9.7,6,13.4,10.6V9.7c0-2.4,0.8-4.4,2.3-5.8
			c1.5-1.5,3.4-2.2,5.8-2.2C473.8,1.6,475.7,2.4,477.2,3.8z M450.3,107.3c4.3-2.6,7.6-6.1,10-10.6s3.6-9.6,3.6-15.1
			c0-5.6-1.2-10.6-3.6-15.1s-5.8-8-10-10.6c-4.3-2.6-9-3.9-14.3-3.9s-10,1.3-14.3,3.9c-4.3,2.6-7.6,6.1-10.1,10.6s-3.7,9.5-3.7,15.1
			s1.2,10.6,3.7,15.1s5.8,8.1,10.1,10.6c4.3,2.6,9,3.9,14.3,3.9S446,109.9,450.3,107.3z"/>
	</g>
	<g>
		<path class="st4" d="M165,6.7c2,2,3.1,4.5,3.1,7.3s-1,5.3-3.1,7.3c-2,2-4.5,3.1-7.3,3.1s-5.3-1-7.3-3.1c-2-2.1-3.1-4.5-3.1-7.3
			s1-5.3,3.1-7.3c2-2.1,4.5-3.1,7.3-3.1S163,4.7,165,6.7z"/>
	</g>
</g>
</svg>
