<svg xmlns="http://www.w3.org/2000/svg" xmlns:xlink="http://www.w3.org/1999/xlink" viewBox="0 0 1696.68 1052.3"><defs><style>.cls-1{fill:url(#linear-gradient);}.cls-2{fill:url(#linear-gradient-2);}.cls-3{fill:url(#linear-gradient-3);}.cls-4{fill:url(#linear-gradient-4);}.cls-5{fill:url(#linear-gradient-5);}.cls-6{fill:url(#linear-gradient-6);}.cls-7{fill:url(#linear-gradient-7);}.cls-8{fill:url(#linear-gradient-8);}</style><linearGradient id="linear-gradient" x1="573.59" y1="301.9" x2="1135.14" y2="301.9" gradientUnits="userSpaceOnUse"><stop offset="0.4" stop-color="#b9cf2f"/><stop offset="0.62" stop-color="#b5ca2e"/><stop offset="0.88" stop-color="#a8bc2a"/><stop offset="1" stop-color="#a0b328"/></linearGradient><linearGradient id="linear-gradient-2" x1="1135.14" y1="301.9" x2="1696.68" y2="301.9" gradientUnits="userSpaceOnUse"><stop offset="0" stop-color="#b3c72f"/><stop offset="0.16" stop-color="#acbf2e"/><stop offset="0.77" stop-color="#94a625"/></linearGradient><linearGradient id="linear-gradient-3" x1="1135.14" y1="828.06" x2="1696.68" y2="828.06" gradientUnits="userSpaceOnUse"><stop offset="0" stop-color="#5c6617"/><stop offset="0.11" stop-color="#78861f"/><stop offset="0.24" stop-color="#90a025"/><stop offset="0.38" stop-color="#a3b52b"/><stop offset="0.53" stop-color="#b0c42e"/><stop offset="0.71" stop-color="#b8cc30"/><stop offset="1" stop-color="#bacf31"/></linearGradient><linearGradient id="linear-gradient-4" x1="573.59" y1="828.06" x2="1135.14" y2="828.06" gradientUnits="userSpaceOnUse"><stop offset="0.35" stop-color="#b3c72f"/><stop offset="0.51" stop-color="#abbf2d"/><stop offset="0.75" stop-color="#97a827"/><stop offset="0.97" stop-color="#7f8e20"/></linearGradient><linearGradient id="linear-gradient-5" y1="301.9" x2="561.54" y2="301.9" gradientUnits="userSpaceOnUse"><stop offset="0" stop-color="#2d6cab"/><stop offset="0.14" stop-color="#2d6aaa"/><stop offset="1" stop-color="#272e88"/></linearGradient><linearGradient id="linear-gradient-6" x1="561.54" y1="301.9" x2="1123.09" y2="301.9" gradientUnits="userSpaceOnUse"><stop offset="0.16" stop-color="#1f3c8f"/><stop offset="1" stop-color="#282063"/></linearGradient><linearGradient id="linear-gradient-7" x1="561.54" y1="828.06" x2="1123.09" y2="828.06" gradientUnits="userSpaceOnUse"><stop offset="0.28" stop-color="#26195c"/><stop offset="1" stop-color="#16519a"/></linearGradient><linearGradient id="linear-gradient-8" y1="828.06" x2="561.54" y2="828.06" gradientUnits="userSpaceOnUse"><stop offset="0" stop-color="#0c64a5"/><stop offset="0.77" stop-color="#211f61"/></linearGradient></defs><g id="Layer_3" data-name="Layer 3"><polygon class="cls-1" points="1135.14 603.81 1135.14 0 573.6 603.81 1135.14 603.81"/><polygon class="cls-2" points="1135.14 603.81 1135.14 0 1696.68 603.81 1135.14 603.81"/><polygon class="cls-3" points="1696.68 603.81 1696.68 1052.3 1135.14 603.81 1696.68 603.81"/><polygon class="cls-4" points="573.6 603.81 573.6 1052.3 1135.14 603.81 573.6 603.81"/></g><g id="Layer_2" data-name="Layer 2"><polygon class="cls-5" points="561.54 603.81 561.54 0 0 603.81 561.54 603.81"/><polygon class="cls-6" points="561.54 603.81 561.54 0 1123.09 603.81 561.54 603.81"/><polygon class="cls-7" points="1123.09 603.81 1123.09 1052.3 561.54 603.81 1123.09 603.81"/><polygon class="cls-8" points="0 603.81 0 1052.3 561.54 603.81 0 603.81"/></g></svg>