<svg xmlns="http://www.w3.org/2000/svg" xmlns:xlink="http://www.w3.org/1999/xlink" viewBox="0 0 204.65 64"><defs><style>.cls-1{fill:#d9e021;}.cls-2{fill:url(#linear-gradient);}.cls-3{fill:url(#linear-gradient-2);}.cls-4{fill:url(#linear-gradient-3);}.cls-5{fill:url(#linear-gradient-4);}.cls-6{fill:url(#linear-gradient-5);}.cls-7{fill:url(#linear-gradient-6);}.cls-8{fill:url(#linear-gradient-7);}.cls-9{fill:#2e3192;}.cls-10{fill:url(#radial-gradient);}.cls-11{fill:url(#radial-gradient-2);}.cls-12{fill:url(#radial-gradient-3);}.cls-13{fill:url(#radial-gradient-4);}.cls-14{fill:url(#radial-gradient-5);}.cls-15{fill:url(#radial-gradient-6);}.cls-16{fill:url(#radial-gradient-7);}.cls-17{fill:url(#radial-gradient-8);}.cls-18{fill:url(#linear-gradient-8);}.cls-19{fill:url(#radial-gradient-9);}.cls-20{fill:url(#radial-gradient-10);}.cls-21{fill:url(#radial-gradient-11);}.cls-22{fill:url(#radial-gradient-12);}.cls-23{fill:url(#radial-gradient-13);}.cls-24{fill:#fff;}.cls-25{fill:url(#radial-gradient-14);}.cls-26{fill:url(#radial-gradient-15);}.cls-27{fill:url(#radial-gradient-16);}.cls-28{fill:url(#radial-gradient-17);}</style><linearGradient id="linear-gradient" x1="161.84" y1="51.17" x2="183" y2="51.17" gradientTransform="matrix(1, 0, 0, -1, 0.01, 65.82)" gradientUnits="userSpaceOnUse"><stop offset="0.4" stop-color="#b9cf2f"/><stop offset="0.62" stop-color="#b5ca2e"/><stop offset="0.88" stop-color="#a8bc2a"/><stop offset="1" stop-color="#a0b328"/></linearGradient><linearGradient id="linear-gradient-2" x1="183" y1="51.17" x2="204.16" y2="51.17" gradientTransform="matrix(1, 0, 0, -1, 0.01, 65.82)" gradientUnits="userSpaceOnUse"><stop offset="0" stop-color="#b3c72f"/><stop offset="0.16" stop-color="#acbf2e"/><stop offset="0.77" stop-color="#94a625"/></linearGradient><linearGradient id="linear-gradient-3" x1="183" y1="31.34" x2="204.16" y2="31.34" gradientTransform="matrix(1, 0, 0, -1, 0.01, 65.82)" gradientUnits="userSpaceOnUse"><stop offset="0" stop-color="#5c6617"/><stop offset="0.11" stop-color="#78861f"/><stop offset="0.24" stop-color="#90a025"/><stop offset="0.38" stop-color="#a3b52b"/><stop offset="0.53" stop-color="#b0c42e"/><stop offset="0.71" stop-color="#b8cc30"/><stop offset="1" stop-color="#bacf31"/></linearGradient><linearGradient id="linear-gradient-4" x1="140.22" y1="51.17" x2="161.38" y2="51.17" gradientTransform="matrix(1, 0, 0, -1, 0.01, 65.82)" gradientUnits="userSpaceOnUse"><stop offset="0" stop-color="#2d6cab"/><stop offset="0.14" stop-color="#2d6aaa"/><stop offset="1" stop-color="#272e88"/></linearGradient><linearGradient id="linear-gradient-5" x1="161.38" y1="51.17" x2="182.54" y2="51.17" gradientTransform="matrix(1, 0, 0, -1, 0.01, 65.82)" gradientUnits="userSpaceOnUse"><stop offset="0.16" stop-color="#1f3c8f"/><stop offset="1" stop-color="#282063"/></linearGradient><linearGradient id="linear-gradient-6" x1="161.38" y1="31.34" x2="182.54" y2="31.34" gradientTransform="matrix(1, 0, 0, -1, 0.01, 65.82)" gradientUnits="userSpaceOnUse"><stop offset="0.28" stop-color="#26195c"/><stop offset="1" stop-color="#16519a"/></linearGradient><linearGradient id="linear-gradient-7" x1="140.22" y1="31.34" x2="161.38" y2="31.34" gradientTransform="matrix(1, 0, 0, -1, 0.01, 65.82)" gradientUnits="userSpaceOnUse"><stop offset="0" stop-color="#0c64a5"/><stop offset="0.77" stop-color="#211f61"/></linearGradient><radialGradient id="radial-gradient" cx="404" cy="45.43" r="18.59" gradientTransform="matrix(1.25, -0.23, 0.22, 1.29, -368.86, 56.88)" gradientUnits="userSpaceOnUse"><stop offset="0.13" stop-color="#ec261e"/><stop offset="1" stop-color="#faa237"/></radialGradient><radialGradient id="radial-gradient-2" cx="430.56" cy="44.04" r="28.62" gradientTransform="matrix(1.25, -0.23, 0.22, 1.29, -368.86, 56.88)" gradientUnits="userSpaceOnUse"><stop offset="0" stop-color="#ec261e"/><stop offset="0.06" stop-color="#ed2f20"/><stop offset="0.71" stop-color="#f68130"/><stop offset="1" stop-color="#faa237"/></radialGradient><radialGradient id="radial-gradient-3" cx="407.86" cy="39.58" r="2.98" xlink:href="#radial-gradient"/><radialGradient id="radial-gradient-4" cx="425.27" cy="43.74" r="29.52" gradientTransform="matrix(1.25, -0.23, 0.22, 1.29, -368.86, 56.88)" gradientUnits="userSpaceOnUse"><stop offset="0" stop-color="#faa237"/><stop offset="0.15" stop-color="#f99c36"/><stop offset="0.34" stop-color="#f88c33"/><stop offset="0.56" stop-color="#f4712d"/><stop offset="0.8" stop-color="#f04c26"/><stop offset="1" stop-color="#ec261e"/></radialGradient><radialGradient id="radial-gradient-5" cx="418.67" cy="46.16" r="11.64" xlink:href="#radial-gradient-4"/><radialGradient id="radial-gradient-6" cx="417.36" cy="32.53" r="13.79" gradientTransform="matrix(1.25, -0.23, 0.22, 1.29, -368.86, 56.88)" gradientUnits="userSpaceOnUse"><stop offset="0" stop-color="#faa237"/><stop offset="0.09" stop-color="#f99c36"/><stop offset="0.2" stop-color="#f88c33"/><stop offset="0.33" stop-color="#f4712d"/><stop offset="0.48" stop-color="#f04c26"/><stop offset="0.6" stop-color="#ec261e"/></radialGradient><radialGradient id="radial-gradient-7" cx="413.88" cy="31.31" r="13.14" gradientTransform="matrix(1.25, -0.23, 0.22, 1.29, -368.85, 56.7)" xlink:href="#radial-gradient-6"/><radialGradient id="radial-gradient-8" cx="412.21" cy="37.59" r="12.63" xlink:href="#radial-gradient-4"/><linearGradient id="linear-gradient-8" x1="410.16" y1="37.17" x2="423.1" y2="38.29" gradientTransform="translate(-256.68 43.52) rotate(-10.1)" gradientUnits="userSpaceOnUse"><stop offset="0" stop-color="#faa237"/><stop offset="0.19" stop-color="#f27d28"/><stop offset="0.33" stop-color="#ec651e"/><stop offset="0.65" stop-color="#faa237"/><stop offset="1" stop-color="#ec651e"/></linearGradient><radialGradient id="radial-gradient-9" cx="420.7" cy="30.57" r="12.24" xlink:href="#radial-gradient-2"/><radialGradient id="radial-gradient-10" cx="413.34" cy="36.65" r="9.31" gradientTransform="matrix(1.25, -0.23, 0.22, 1.29, -368.86, 56.88)" gradientUnits="userSpaceOnUse"><stop offset="0" stop-color="#fff"/><stop offset="1" stop-color="#faa237"/></radialGradient><radialGradient id="radial-gradient-11" cx="413.34" cy="36.64" r="9.32" xlink:href="#radial-gradient-10"/><radialGradient id="radial-gradient-12" cx="412.28" cy="33.82" r="8.82" xlink:href="#radial-gradient-10"/><radialGradient id="radial-gradient-13" cx="412.28" cy="33.82" r="8.82" xlink:href="#radial-gradient-10"/><radialGradient id="radial-gradient-14" cx="412.46" cy="33.22" r="5.56" xlink:href="#radial-gradient-10"/><radialGradient id="radial-gradient-15" cx="418.35" cy="34.51" r="3.38" xlink:href="#radial-gradient-10"/><radialGradient id="radial-gradient-16" cx="414.13" cy="39.39" r="6.88" xlink:href="#radial-gradient-10"/><radialGradient id="radial-gradient-17" cx="415.76" cy="39.9" r="7.45" xlink:href="#radial-gradient-4"/></defs><g id="Layer_1" data-name="Layer 1"><g id="property"><g id="software"><path class="cls-1" d="M5.36,54a3.46,3.46,0,0,1,1.27,1.36,4.26,4.26,0,0,1,0,3.84,3.39,3.39,0,0,1-1.24,1.36A3.17,3.17,0,0,1,3.64,61a3.11,3.11,0,0,1-1.52-.37,3.32,3.32,0,0,1-1.14-1v4A.49.49,0,0,1,.84,64a.44.44,0,0,1-.36.15A.47.47,0,0,1,.13,64,.51.51,0,0,1,0,63.59v-3a.24.24,0,0,1,0-.12V57.26a4,4,0,0,1,.46-1.93A3.56,3.56,0,0,1,1.74,54a3.55,3.55,0,0,1,1.8-.49A3.43,3.43,0,0,1,5.36,54Zm-.49,5.74a2.58,2.58,0,0,0,.94-1,3.31,3.31,0,0,0,0-2.88,2.58,2.58,0,0,0-.94-1,2.35,2.35,0,0,0-1.32-.37,2.34,2.34,0,0,0-1.31.37,2.71,2.71,0,0,0-.93,1A3.08,3.08,0,0,0,1,57.26a1.93,1.93,0,0,0,0,.34v.06a2.81,2.81,0,0,0,.84,1.74,2.41,2.41,0,0,0,1.71.67A2.45,2.45,0,0,0,4.87,59.71Z" transform="translate(0.01 -0.18)"/><path class="cls-1" d="M13,53.62a.46.46,0,0,1,.31.42.24.24,0,0,1,0,.12.37.37,0,0,1-.15.25.53.53,0,0,1-.3.07h-.71a2.27,2.27,0,0,0-1.56.54A1.84,1.84,0,0,0,10,56.43v4a.53.53,0,0,1-.12.38.57.57,0,0,1-.72,0A.55.55,0,0,1,9,60.44V54.06a.53.53,0,0,1,.12-.38.57.57,0,0,1,.72,0,.53.53,0,0,1,.12.38v.6a2.65,2.65,0,0,1,1-.88,2.46,2.46,0,0,1,1.24-.31A2,2,0,0,1,13,53.62Z" transform="translate(0.01 -0.18)"/><path class="cls-1" d="M19.25,54a3.41,3.41,0,0,1,1.26,1.35A3.86,3.86,0,0,1,21,57.26a4,4,0,0,1-.48,1.93,3.54,3.54,0,0,1-4.81,1.39l-.09,0a3.34,3.34,0,0,1-1.27-1.34,4.32,4.32,0,0,1,0-3.87A3.37,3.37,0,0,1,15.62,54,3.62,3.62,0,0,1,19.25,54Zm-3.14.82a2.71,2.71,0,0,0-.93,1,3.07,3.07,0,0,0-.34,1.46,3.14,3.14,0,0,0,.34,1.44,2.71,2.71,0,0,0,.93,1,2.57,2.57,0,0,0,1.32.36,2.49,2.49,0,0,0,1.33-.36,2.53,2.53,0,0,0,.92-1A3.06,3.06,0,0,0,20,57.26a3.19,3.19,0,0,0-.33-1.46,2.53,2.53,0,0,0-.92-1,2.49,2.49,0,0,0-1.33-.36A2.52,2.52,0,0,0,16.11,54.79Z" transform="translate(0.01 -0.18)"/><path class="cls-1" d="M28.19,54a3.56,3.56,0,0,1,1.28,1.36,4.2,4.2,0,0,1,0,3.84,3.36,3.36,0,0,1-1.23,1.36,3.23,3.23,0,0,1-1.76.49,3.19,3.19,0,0,1-2.61-1.37v4a.57.57,0,0,1-.14.38.48.48,0,0,1-.36.15A.47.47,0,0,1,23,64a.52.52,0,0,1-.13-.38v-3a.24.24,0,0,1,0-.12V57.26a3.94,3.94,0,0,1,.47-1.93,3.41,3.41,0,0,1,3.08-1.85A3.37,3.37,0,0,1,28.19,54Zm-.48,5.74a2.56,2.56,0,0,0,.93-1,3.24,3.24,0,0,0,0-2.88,2.71,2.71,0,0,0-.93-1,2.38,2.38,0,0,0-1.32-.37,2.34,2.34,0,0,0-1.31.37,2.71,2.71,0,0,0-.93,1,3,3,0,0,0-.34,1.44v.34a.06.06,0,0,1,0,.06,2.75,2.75,0,0,0,.83,1.74,2.43,2.43,0,0,0,1.72.67A2.48,2.48,0,0,0,27.71,59.71Z" transform="translate(0.01 -0.18)"/><path class="cls-1" d="M36.46,54a3,3,0,0,1,1.12,1.29A4.23,4.23,0,0,1,38,57.12a.45.45,0,0,1-.46.48H32.37a2.74,2.74,0,0,0,.82,1.8,2.48,2.48,0,0,0,1.81.69,2.63,2.63,0,0,0,.92-.17,2.16,2.16,0,0,0,.75-.43.51.51,0,0,1,.34-.13.48.48,0,0,1,.28.1.58.58,0,0,1,.17.37.41.41,0,0,1-.14.31,3.73,3.73,0,0,1-1.07.63,3.48,3.48,0,0,1-4.36-1.58,4.1,4.1,0,0,1-.45-1.94,4.32,4.32,0,0,1,.43-2,3.21,3.21,0,0,1,1.19-1.34,3.14,3.14,0,0,1,3.4,0Zm-3.28,1.1a2.8,2.8,0,0,0-.78,1.68h4.67a2.7,2.7,0,0,0-.72-1.68,2.1,2.1,0,0,0-1.57-.64A2.21,2.21,0,0,0,33.18,55.05Z" transform="translate(0.01 -0.18)"/><path class="cls-1" d="M43.59,53.62a.47.47,0,0,1,.32.42.24.24,0,0,1,0,.12.35.35,0,0,1-.16.25.53.53,0,0,1-.3.07h-.7a2.22,2.22,0,0,0-1.56.54,1.84,1.84,0,0,0-.61,1.41v4a.53.53,0,0,1-.12.38.57.57,0,0,1-.72,0,.53.53,0,0,1-.13-.38V54.06a.53.53,0,0,1,.13-.38.57.57,0,0,1,.72,0,.53.53,0,0,1,.12.38v.6a2.59,2.59,0,0,1,1-.88,2.53,2.53,0,0,1,1.23-.31A2,2,0,0,1,43.59,53.62Z" transform="translate(0.01 -0.18)"/><path class="cls-1" d="M48.79,60.06a.53.53,0,0,1,.13.38.48.48,0,0,1-.15.36.56.56,0,0,1-.39.15h-.26a2.19,2.19,0,0,1-1.22-.34,2.35,2.35,0,0,1-.83-.94,2.79,2.79,0,0,1-.3-1.33V54.73h-.83a.43.43,0,0,1-.45-.41v0a.45.45,0,0,1,.12-.33.42.42,0,0,1,.33-.13h.83v-2.1a.53.53,0,0,1,.13-.38.47.47,0,0,1,.35-.15.44.44,0,0,1,.36.15.57.57,0,0,1,.14.38v2.1h1.44a.42.42,0,0,1,.33.13.45.45,0,0,1,.12.33.43.43,0,0,1-.41.45H46.75v3.61a1.67,1.67,0,0,0,.38,1.13,1.28,1.28,0,0,0,1,.44h.34A.41.41,0,0,1,48.79,60.06Z" transform="translate(0.01 -0.18)"/><path class="cls-1" d="M56.22,54a1,1,0,0,1,0,.25L52,63.86a.4.4,0,0,1-.37.32.46.46,0,0,1-.23-.06.43.43,0,0,1-.29-.4.53.53,0,0,1,0-.25l1.26-3h0l-2.84-6.25a.53.53,0,0,1,0-.25.42.42,0,0,1,.28-.4.46.46,0,0,1,.23-.06.4.4,0,0,1,.38.29l2.49,5.56,2.37-5.55c.09-.2.21-.3.38-.3a.46.46,0,0,1,.23.06A.42.42,0,0,1,56.22,54Z" transform="translate(0.01 -0.18)"/></g><path class="cls-1" d="M69.23,53.5a2.51,2.51,0,0,1,.91,1.08,3.89,3.89,0,0,1,.32,1.61v3.9a.47.47,0,0,1-.48.51.54.54,0,0,1-.36-.14.55.55,0,0,1-.14-.37v-3.9A2.38,2.38,0,0,0,69,54.67a1.52,1.52,0,0,0-1.22-.56,1.66,1.66,0,0,0-1.3.57A2.11,2.11,0,0,0,66,56.19v3.93a.56.56,0,0,1-.13.37.54.54,0,0,1-.36.14.5.5,0,0,1-.35-.14.47.47,0,0,1-.14-.37V56.19a2.34,2.34,0,0,0-.47-1.53,1.52,1.52,0,0,0-1.22-.56,1.7,1.7,0,0,0-1.3.56,2,2,0,0,0-.51,1.42v4a.47.47,0,0,1-.48.51.54.54,0,0,1-.36-.14.55.55,0,0,1-.14-.37V53.73a.57.57,0,0,1,.14-.38A.44.44,0,0,1,61,53.2a.47.47,0,0,1,.35.15.53.53,0,0,1,.13.38V54a2.53,2.53,0,0,1,.85-.67,2.42,2.42,0,0,1,1.06-.24,2.37,2.37,0,0,1,2.16,1.29,2.6,2.6,0,0,1,2.3-1.29A2.37,2.37,0,0,1,69.23,53.5Z" transform="translate(0.01 -0.18)"/><path class="cls-1" d="M77.36,53.63A3.46,3.46,0,0,1,78.63,55a4,4,0,0,1,.47,1.92V60.1a.54.54,0,0,1-.14.36.48.48,0,0,1-.36.15.54.54,0,0,1-.36-.14.55.55,0,0,1-.14-.37v-.82a3.35,3.35,0,0,1-4.4.91,3.43,3.43,0,0,1-1.24-1.35A4.07,4.07,0,0,1,72,56.91,4,4,0,0,1,72.47,55a3.56,3.56,0,0,1,1.28-1.36,3.36,3.36,0,0,1,1.8-.49A3.4,3.4,0,0,1,77.36,53.63Zm-.49,5.73a2.6,2.6,0,0,0,.92-1,3.26,3.26,0,0,0,0-2.89,2.53,2.53,0,0,0-.92-1,2.48,2.48,0,0,0-2.64,0,2.49,2.49,0,0,0-.93,1,3.26,3.26,0,0,0,0,2.89,2.53,2.53,0,0,0,3.57,1Z" transform="translate(0.01 -0.18)"/><path class="cls-1" d="M85.69,53.53a3,3,0,0,1,1.13,1.18,4,4,0,0,1,.4,1.87V60.1a.46.46,0,0,1-.14.36.43.43,0,0,1-.34.15.48.48,0,0,1-.36-.15.54.54,0,0,1-.14-.36V56.58a2.49,2.49,0,0,0-.63-1.84A2.2,2.2,0,0,0,84,54.11a2.47,2.47,0,0,0-1.13.26,2,2,0,0,0-.8.71,1.88,1.88,0,0,0-.29,1v4a.55.55,0,0,1-.14.37.43.43,0,0,1-.35.14.5.5,0,0,1-.35-.14.47.47,0,0,1-.14-.37V53.73a.49.49,0,0,1,.14-.38.47.47,0,0,1,.35-.15.44.44,0,0,1,.35.15.57.57,0,0,1,.14.38v.46a3,3,0,0,1,1-.78,3.08,3.08,0,0,1,1.3-.29A3.35,3.35,0,0,1,85.69,53.53Z" transform="translate(0.01 -0.18)"/><path class="cls-1" d="M94.12,53.63A3.56,3.56,0,0,1,95.4,55a4,4,0,0,1,.46,1.92V60.1a.54.54,0,0,1-.14.36.44.44,0,0,1-.36.15.5.5,0,0,1-.35-.14.47.47,0,0,1-.14-.37v-.82a3.26,3.26,0,0,1-4.41.9,3.5,3.5,0,0,1-1.24-1.35,4.28,4.28,0,0,1,0-3.84,3.49,3.49,0,0,1,4.89-1.36Zm-.49,5.73a2.53,2.53,0,0,0,.92-1,3.26,3.26,0,0,0,0-2.89,2.53,2.53,0,0,0-.92-1,2.48,2.48,0,0,0-2.64,0,2.63,2.63,0,0,0-.93,1,3.33,3.33,0,0,0,0,2.89,2.71,2.71,0,0,0,.93,1,2.54,2.54,0,0,0,2.64,0Z" transform="translate(0.01 -0.18)"/><path class="cls-1" d="M102.52,53.62A3.25,3.25,0,0,1,103.78,55a4,4,0,0,1,.46,1.95v2.77a4.22,4.22,0,0,1-.45,2,3.45,3.45,0,0,1-1.26,1.39,3.38,3.38,0,0,1-1.81.5A3.79,3.79,0,0,1,99,63.19a3.64,3.64,0,0,1-1.28-1.09.47.47,0,0,1-.12-.32.44.44,0,0,1,.18-.35.4.4,0,0,1,.22-.14.46.46,0,0,1,.23.06.43.43,0,0,1,.18.15,2.52,2.52,0,0,0,1,.8,2.93,2.93,0,0,0,1.33.29,2.35,2.35,0,0,0,1.26-.4,2.44,2.44,0,0,0,.91-1,3.38,3.38,0,0,0,.33-1.53v-.61a2.87,2.87,0,0,1-1.08,1.21,3,3,0,0,1-1.6.44,3.39,3.39,0,0,1-3-1.85,4.21,4.21,0,0,1-.44-2,4,4,0,0,1,.46-2,3.34,3.34,0,0,1,1.27-1.34,3.69,3.69,0,0,1,3.64,0Zm-.5,5.75a2.4,2.4,0,0,0,.92-1,3.37,3.37,0,0,0,0-2.91,2.46,2.46,0,0,0-.92-1,2.59,2.59,0,0,0-2.66,0,2.53,2.53,0,0,0-.92,1,3.37,3.37,0,0,0,0,2.91,2.57,2.57,0,0,0,3.48,1.06Z" transform="translate(0.01 -0.18)"/><path class="cls-1" d="M110.55,53.6a3.07,3.07,0,0,1,1.12,1.3,4.22,4.22,0,0,1,.41,1.88.47.47,0,0,1-.13.34.46.46,0,0,1-.33.13h-5.16a2.74,2.74,0,0,0,.82,1.8,2.47,2.47,0,0,0,1.79.69,2.63,2.63,0,0,0,.92-.17,2.23,2.23,0,0,0,.75-.42.48.48,0,0,1,.34-.14.49.49,0,0,1,.28.11.48.48,0,0,1,.17.37.41.41,0,0,1-.14.31,3.73,3.73,0,0,1-1.07.63,3.52,3.52,0,0,1-3.08-.23A3.33,3.33,0,0,1,106,58.86a4.08,4.08,0,0,1-.46-2,4.27,4.27,0,0,1,.43-2,3.17,3.17,0,0,1,2.91-1.82A3,3,0,0,1,110.55,53.6Zm-3.28,1.11a2.74,2.74,0,0,0-.78,1.68h4.67a2.7,2.7,0,0,0-.72-1.68,2.07,2.07,0,0,0-1.57-.64A2.13,2.13,0,0,0,107.27,54.71Z" transform="translate(0.01 -0.18)"/><path class="cls-1" d="M122.16,53.5a2.51,2.51,0,0,1,.91,1.08,3.91,3.91,0,0,1,.32,1.62v3.9a.47.47,0,0,1-.48.51.54.54,0,0,1-.36-.14.55.55,0,0,1-.14-.37V56.19a2.39,2.39,0,0,0-.46-1.53,1.55,1.55,0,0,0-1.22-.56,1.65,1.65,0,0,0-1.31.57,2.17,2.17,0,0,0-.48,1.49v3.93a.47.47,0,0,1-.48.51.48.48,0,0,1-.5-.46v-4a2.34,2.34,0,0,0-.47-1.53,1.52,1.52,0,0,0-1.22-.56,1.7,1.7,0,0,0-1.3.56,2,2,0,0,0-.51,1.42v4a.47.47,0,0,1-.48.51.54.54,0,0,1-.36-.14.55.55,0,0,1-.14-.37V53.73a.57.57,0,0,1,.14-.38.46.46,0,0,1,.38-.16.47.47,0,0,1,.35.15.53.53,0,0,1,.13.38V54a2.53,2.53,0,0,1,.85-.67,2.46,2.46,0,0,1,1.07-.24,2.39,2.39,0,0,1,2.15,1.29,2.64,2.64,0,0,1,2.3-1.29A2.42,2.42,0,0,1,122.16,53.5Z" transform="translate(0.01 -0.18)"/><path class="cls-1" d="M130,53.6a3.16,3.16,0,0,1,1.13,1.3,4.21,4.21,0,0,1,.4,1.88.43.43,0,0,1-.13.34.42.42,0,0,1-.33.13h-5.15a2.78,2.78,0,0,0,.81,1.8,2.49,2.49,0,0,0,1.79.69,2.69,2.69,0,0,0,.93-.17,2.18,2.18,0,0,0,.74-.42.52.52,0,0,1,.35-.14.47.47,0,0,1,.44.48h0a.41.41,0,0,1-.14.31,3.73,3.73,0,0,1-1.07.63,3.57,3.57,0,0,1-1.25.25,3.42,3.42,0,0,1-1.82-.48,3.32,3.32,0,0,1-1.26-1.34,4.22,4.22,0,0,1-.45-2,4.39,4.39,0,0,1,.42-2,3.28,3.28,0,0,1,1.19-1.34,3.21,3.21,0,0,1,1.73-.48A3,3,0,0,1,130,53.6Zm-3.28,1.11a2.88,2.88,0,0,0-.78,1.68h4.67a2.63,2.63,0,0,0-.71-1.68,2.07,2.07,0,0,0-1.57-.64,2.19,2.19,0,0,0-1.66.64Z" transform="translate(0.01 -0.18)"/><path class="cls-1" d="M137.82,53.53a2.89,2.89,0,0,1,1.12,1.18,3.9,3.9,0,0,1,.41,1.87V60.1a.46.46,0,0,1-.14.36.45.45,0,0,1-.34.15.44.44,0,0,1-.36-.15.54.54,0,0,1-.14-.36V56.58a2.49,2.49,0,0,0-.63-1.84,2.21,2.21,0,0,0-1.65-.63,2.34,2.34,0,0,0-1.13.26,2,2,0,0,0-.8.71,1.79,1.79,0,0,0-.29,1v4a.55.55,0,0,1-.14.37.5.5,0,0,1-.35.14.54.54,0,0,1-.36-.14.55.55,0,0,1-.14-.37V53.73a.57.57,0,0,1,.14-.38.48.48,0,0,1,.36-.15.44.44,0,0,1,.35.15.57.57,0,0,1,.14.38v.46a3,3,0,0,1,1-.78,3.08,3.08,0,0,1,1.3-.29A3.29,3.29,0,0,1,137.82,53.53Z" transform="translate(0.01 -0.18)"/><path class="cls-1" d="M144.67,59.72a.52.52,0,0,1,.13.38.48.48,0,0,1-.15.36.56.56,0,0,1-.39.15H144a2.28,2.28,0,0,1-1.22-.35,2.4,2.4,0,0,1-.83-.93,2.91,2.91,0,0,1-.3-1.33V54.38h-.83a.39.39,0,0,1-.32-.13.4.4,0,0,1-.13-.31.43.43,0,0,1,.13-.34.41.41,0,0,1,.32-.12h.83v-2.1a.52.52,0,0,1,.13-.38.47.47,0,0,1,.35-.15.44.44,0,0,1,.36.15.57.57,0,0,1,.14.38v2.1h1.44a.45.45,0,0,1,.33.12.52.52,0,0,1,.12.34.43.43,0,0,1-.12.31.42.42,0,0,1-.33.13h-1.44V58a1.72,1.72,0,0,0,.38,1.13,1.28,1.28,0,0,0,1,.44h.34A.41.41,0,0,1,144.67,59.72Z" transform="translate(0.01 -0.18)"/><path class="cls-1" d="M153.27,53.44a2.74,2.74,0,0,1,1,.85.67.67,0,0,1,.1.31.41.41,0,0,1-.21.36.34.34,0,0,1-.24.07.59.59,0,0,1-.45-.2,2.14,2.14,0,0,0-1.73-.76,1.89,1.89,0,0,0-1.13.3.93.93,0,0,0,0,1.55,3.6,3.6,0,0,0,1.42.46,4,4,0,0,1,2,.8,1.8,1.8,0,0,1,.59,1.36,1.9,1.9,0,0,1-.35,1.11,2.35,2.35,0,0,1-1,.76,3.5,3.5,0,0,1-1.43.27,4.24,4.24,0,0,1-1.53-.29,2.85,2.85,0,0,1-1.19-.8.44.44,0,0,1-.13-.31.49.49,0,0,1,.21-.4.46.46,0,0,1,.65,0l0,0a2,2,0,0,0,.82.59,3.09,3.09,0,0,0,1.13.2,2.28,2.28,0,0,0,1.35-.33,1,1,0,0,0,.47-.85,1,1,0,0,0-.45-.81,3.43,3.43,0,0,0-1.43-.49,3.73,3.73,0,0,1-1.89-.75,1.63,1.63,0,0,1-.63-1.29,1.81,1.81,0,0,1,.73-1.53,3,3,0,0,1,1.82-.54A3.49,3.49,0,0,1,153.27,53.44Z" transform="translate(0.01 -0.18)"/><path class="cls-1" d="M161.35,53.62A3.56,3.56,0,0,1,162.63,55a4.24,4.24,0,0,1,0,3.86,3.39,3.39,0,0,1-1.28,1.35,3.68,3.68,0,0,1-3.67,0,3.39,3.39,0,0,1-1.28-1.35,4.18,4.18,0,0,1,0-3.86,3.49,3.49,0,0,1,1.28-1.36,3.59,3.59,0,0,1,1.84-.48A3.55,3.55,0,0,1,161.35,53.62Zm-3.17.83a2.58,2.58,0,0,0-.94,1,3.28,3.28,0,0,0,0,2.9,2.58,2.58,0,0,0,.94,1,2.63,2.63,0,0,0,2.68,0,2.71,2.71,0,0,0,.93-1,3.35,3.35,0,0,0,0-2.9,2.56,2.56,0,0,0-3.61-1Z" transform="translate(0.01 -0.18)"/><path class="cls-1" d="M166.87,51.58a2.61,2.61,0,0,0-.43,1.58v.31H168a.46.46,0,0,1,.33.13.51.51,0,0,1,.13.33.44.44,0,0,1-.46.45h-1.54v5.7a.62.62,0,0,1-.14.39.49.49,0,0,1-.38.14.48.48,0,0,1-.34-.14.56.56,0,0,1-.13-.39v-5.7h-.83a.42.42,0,0,1-.33-.13.47.47,0,0,1-.12-.32.5.5,0,0,1,.12-.33.46.46,0,0,1,.33-.13h.83v-.28a3.58,3.58,0,0,1,.7-2.32,2.43,2.43,0,0,1,2-.87.54.54,0,0,1,.36.14.41.41,0,0,1,.14.34.44.44,0,0,1-.14.34.49.49,0,0,1-.36.13A1.48,1.48,0,0,0,166.87,51.58Z" transform="translate(0.01 -0.18)"/><path class="cls-1" d="M173.22,59.72a.56.56,0,0,1,.13.37.52.52,0,0,1-.16.37.51.51,0,0,1-.39.15h-.27a2.28,2.28,0,0,1-1.22-.35,2.35,2.35,0,0,1-.84-.93,2.8,2.8,0,0,1-.31-1.33V54.38h-.83a.42.42,0,0,1-.33-.13.39.39,0,0,1-.13-.32.44.44,0,0,1,.46-.46h.83V51.38a.57.57,0,0,1,.14-.38.47.47,0,0,1,.35-.15A.44.44,0,0,1,171,51a.5.5,0,0,1,.15.38v2.09h1.45a.46.46,0,0,1,.33.13.5.5,0,0,1,.12.33.47.47,0,0,1-.12.32.42.42,0,0,1-.33.13h-1.45V58a1.67,1.67,0,0,0,.38,1.13,1.28,1.28,0,0,0,1,.44h.35A.41.41,0,0,1,173.22,59.72Z" transform="translate(0.01 -0.18)"/><path class="cls-1" d="M183,53.32a.45.45,0,0,1,.12.33.66.66,0,0,1,0,.28l-2,6.34a.55.55,0,0,1-.18.24.43.43,0,0,1-.29.1.47.47,0,0,1-.3-.1.35.35,0,0,1-.17-.24l-1.55-5.39L177,60.27a.45.45,0,0,1-.18.25.47.47,0,0,1-.28.09.43.43,0,0,1-.29-.1.57.57,0,0,1-.19-.24l-2-6.34a1.31,1.31,0,0,1,0-.28c0-.3.14-.45.41-.45a.49.49,0,0,1,.49.4l1.65,5.28,1.52-5.27a.62.62,0,0,1,.18-.3.51.51,0,0,1,.31-.11.52.52,0,0,1,.32.11.51.51,0,0,1,.17.3l1.49,5.24,1.63-5.25a.48.48,0,0,1,.48-.4A.4.4,0,0,1,183,53.32Z" transform="translate(0.01 -0.18)"/><path class="cls-1" d="M189.29,53.63A3.51,3.51,0,0,1,190.58,55a3.9,3.9,0,0,1,.47,1.92v3.18a.47.47,0,0,1-.14.37.44.44,0,0,1-.36.15.54.54,0,0,1-.36-.14.57.57,0,0,1-.14-.38v-.81a3,3,0,0,1-1.15,1,3.16,3.16,0,0,1-1.53.38,3.25,3.25,0,0,1-1.77-.5,3.53,3.53,0,0,1-1.25-1.35,4,4,0,0,1-.46-1.92,3.9,3.9,0,0,1,.47-1.92,3.57,3.57,0,0,1,4.85-1.41l.08,0Zm-.49,5.73a2.71,2.71,0,0,0,.93-1,3.26,3.26,0,0,0,0-2.89,2.63,2.63,0,0,0-.93-1,2.55,2.55,0,0,0-3.51.84l-.09.16a3.14,3.14,0,0,0,0,2.89,2.51,2.51,0,0,0,.94,1A2.59,2.59,0,0,0,188.8,59.36Z" transform="translate(0.01 -0.18)"/><path class="cls-1" d="M197,53.27a.47.47,0,0,1,.32.42.24.24,0,0,1,0,.12.4.4,0,0,1-.16.26.63.63,0,0,1-.3.07h-.71a2.32,2.32,0,0,0-1.58.54,1.76,1.76,0,0,0-.61,1.41v4a.52.52,0,0,1-.13.38.54.54,0,0,1-.36.14.45.45,0,0,1-.36-.14.52.52,0,0,1-.13-.38V53.72a.52.52,0,0,1,.13-.38.45.45,0,0,1,.36-.14.54.54,0,0,1,.36.14.52.52,0,0,1,.13.38v.59a2.65,2.65,0,0,1,1-.88,2.72,2.72,0,0,1,1.25-.31A2.13,2.13,0,0,1,197,53.27Z" transform="translate(0.01 -0.18)"/><path class="cls-1" d="M203.09,53.6a3.18,3.18,0,0,1,1.14,1.3,4.22,4.22,0,0,1,.41,1.88.47.47,0,0,1-.13.34.43.43,0,0,1-.34.13H199a2.74,2.74,0,0,0,.82,1.8,2.54,2.54,0,0,0,1.81.69,2.69,2.69,0,0,0,.93-.17,2.13,2.13,0,0,0,.75-.42.64.64,0,0,1,.35-.14.47.47,0,0,1,.45.47h0a.41.41,0,0,1-.14.31,3.56,3.56,0,0,1-1.08.63,3.62,3.62,0,0,1-1.26.25,3.53,3.53,0,0,1-1.85-.48,3.41,3.41,0,0,1-1.27-1.34,4.22,4.22,0,0,1-.45-2,4.27,4.27,0,0,1,.43-2,2.9,2.9,0,0,1,2.91-1.72A3,3,0,0,1,203.09,53.6Zm-3.31,1.11a2.84,2.84,0,0,0-.79,1.67h4.72a2.69,2.69,0,0,0-.72-1.67,2.1,2.1,0,0,0-1.59-.64A2.18,2.18,0,0,0,199.78,54.71Z" transform="translate(0.01 -0.18)"/></g><g id="Layer_1-2" data-name="Layer 1"><polygon class="cls-2" points="183.01 26.03 183.01 3.28 161.85 26.03 183.01 26.03"/><polygon class="cls-3" points="183.01 26.03 183.01 3.28 204.17 26.03 183.01 26.03"/><polygon class="cls-4" points="204.17 26.03 204.17 42.93 183.01 26.03 204.17 26.03"/><polygon class="cls-5" points="161.39 26.03 161.39 3.28 140.23 26.03 161.39 26.03"/><polygon class="cls-6" points="161.39 26.03 161.39 3.28 182.55 26.03 161.39 26.03"/><polygon class="cls-7" points="182.55 26.03 182.55 42.93 161.39 26.03 182.55 26.03"/><polygon class="cls-8" points="140.23 26.03 140.23 42.93 161.39 26.03 140.23 26.03"/></g><g id="micad"><path class="cls-9" d="M37.3,19.25c1.86,1.91,2.79,4.57,2.79,8V41.61a2.46,2.46,0,0,1-.73,1.83,2.88,2.88,0,0,1-3.83,0,2.47,2.47,0,0,1-.75-1.83V27.24a6.3,6.3,0,0,0-1.59-4.65A5.73,5.73,0,0,0,28.94,21a5.88,5.88,0,0,0-4.46,1.81,6.34,6.34,0,0,0-1.75,4.62V41.61A2.46,2.46,0,0,1,22,43.44a2.88,2.88,0,0,1-3.83,0,2.48,2.48,0,0,1-.76-1.83V27.24a6.3,6.3,0,0,0-1.59-4.65A5.73,5.73,0,0,0,11.57,21a6,6,0,0,0-4.51,1.81,6.37,6.37,0,0,0-1.74,4.62V41.61a2.52,2.52,0,0,1-.73,1.83,2.58,2.58,0,0,1-1.93.75,2.58,2.58,0,0,1-1.9-.73A2.43,2.43,0,0,1,0,41.61V19.25a2.42,2.42,0,0,1,.76-1.86,2.67,2.67,0,0,1,1.9-.7,2.66,2.66,0,0,1,1.88.67,2.53,2.53,0,0,1,.78,1.83,9.73,9.73,0,0,1,3.23-2,11.3,11.3,0,0,1,4.07-.72,10.6,10.6,0,0,1,4.77,1,8.85,8.85,0,0,1,3.46,2.93,10.93,10.93,0,0,1,3.92-2.91A12.56,12.56,0,0,1,30,16.39,9.76,9.76,0,0,1,37.3,19.25Z" transform="translate(0.01 -0.18)"/><path class="cls-9" d="M43.23,17.34a2.74,2.74,0,0,1,1.91-.7,2.68,2.68,0,0,1,1.93.7,2.51,2.51,0,0,1,.73,1.85V41.56a2.52,2.52,0,0,1-.73,1.83,2.61,2.61,0,0,1-1.93.73,2.65,2.65,0,0,1-1.91-.73,2.47,2.47,0,0,1-.75-1.83V19.19A2.42,2.42,0,0,1,43.23,17.34Z" transform="translate(0.01 -0.18)"/><path class="cls-9" d="M73.64,21a1.8,1.8,0,0,1,.52,1.3A2.21,2.21,0,0,1,73,24.12a2,2,0,0,1-1.2.35,2.69,2.69,0,0,1-2-.9,8.23,8.23,0,0,0-2.84-2,9.22,9.22,0,0,0-3.52-.63,8.63,8.63,0,0,0-6.51,2.58,9.49,9.49,0,0,0-2.51,6.86,9.89,9.89,0,0,0,1.18,4.85,8.43,8.43,0,0,0,3.28,3.34,9.54,9.54,0,0,0,4.82,1.21A8.89,8.89,0,0,0,69.44,38a3.3,3.3,0,0,1,1.93-.7,2.26,2.26,0,0,1,1.35.45,2.3,2.3,0,0,1,1,1.81,1.83,1.83,0,0,1-.62,1.35,13.54,13.54,0,0,1-9.39,3.37,15,15,0,0,1-7.4-1.81,13.21,13.21,0,0,1-5.14-5,14,14,0,0,1-1.85-7.11,14.33,14.33,0,0,1,1.77-7.19,12.79,12.79,0,0,1,5-5,14.85,14.85,0,0,1,7.3-1.78A13.16,13.16,0,0,1,73.64,21Z" transform="translate(0.01 -0.18)"/><path class="cls-9" d="M96.34,18.27a13.83,13.83,0,0,1,5.16,5,13.58,13.58,0,0,1,1.91,7.11V41.61a2.48,2.48,0,0,1-.76,1.83,2.84,2.84,0,0,1-3.8,0,2.42,2.42,0,0,1-.76-1.83V39.75a12.72,12.72,0,0,1-4.43,3.36,13.72,13.72,0,0,1-12.44-.6,12.93,12.93,0,0,1-4.79-5,14.57,14.57,0,0,1-1.75-7.11,13.74,13.74,0,0,1,1.88-7.11,13.52,13.52,0,0,1,5.18-5,14.91,14.91,0,0,1,7.33-1.83A14.53,14.53,0,0,1,96.34,18.27Zm-2.55,20.3a8.88,8.88,0,0,0,3.31-3.38,9.59,9.59,0,0,0,1.2-4.8,9.79,9.79,0,0,0-1.2-4.82,8.74,8.74,0,0,0-3.31-3.38,9.67,9.67,0,0,0-9.44,0A9,9,0,0,0,81,25.58a9.65,9.65,0,0,0-1.22,4.82A9.54,9.54,0,0,0,81,35.19a9.08,9.08,0,0,0,3.34,3.37,9.67,9.67,0,0,0,9.44,0Z" transform="translate(0.01 -0.18)"/><path class="cls-9" d="M132.34,5.58a2.53,2.53,0,0,1,.71,1.86V30.35a13.87,13.87,0,0,1-1.86,7.11,13.64,13.64,0,0,1-5.06,5A13.94,13.94,0,0,1,119,44.32a14.28,14.28,0,0,1-7.17-1.83,13.47,13.47,0,0,1-5.08-5,14.07,14.07,0,0,1-1.84-7.11,14.9,14.9,0,0,1,1.71-7.11,12.84,12.84,0,0,1,4.7-5A12.83,12.83,0,0,1,127.83,21V7.44a2.41,2.41,0,0,1,.75-1.86,2.87,2.87,0,0,1,3.75,0Zm-8.71,33a8.61,8.61,0,0,0,3.24-3.4,10.41,10.41,0,0,0,0-9.62,8.67,8.67,0,0,0-3.24-3.37,9,9,0,0,0-12.35,3.09l-.15.27a10.24,10.24,0,0,0,0,9.62,9.11,9.11,0,0,0,12.41,3.45l.09,0Z" transform="translate(0.01 -0.18)"/><path class="cls-1" d="M47.56,8.89a3.18,3.18,0,0,1,.18,4.49l-.18.18a3.48,3.48,0,0,1-4.85,0A3.19,3.19,0,0,1,42.56,9l.15-.15A3.48,3.48,0,0,1,47.56,8.89Z" transform="translate(0.01 -0.18)"/></g></g><g id="Layer_2" data-name="Layer 2"><path class="cls-10" d="M151.78,9.31A13.78,13.78,0,0,0,148.51,12c-.46.69-1.24,1.45-.51,3.73a5.28,5.28,0,0,0,3.35,3.64c1.21.4,2.66.81,10.65-1,3.74-.86,7.3-2,8.46-3.12a3.73,3.73,0,0,0,1.34-3.79,2.41,2.41,0,0,0-1.45-2.09c-.49-.35-17.68.3-17.68.3" transform="translate(0.01 -0.18)"/><path class="cls-11" d="M151.72,9a13.52,13.52,0,0,0-3.27,2.67A4.11,4.11,0,0,0,148,15.7,4.57,4.57,0,0,0,151.29,19c1.21.4,2.66.81,10.65-1,3.74-.86,7.3-2,8.46-3.12a3.5,3.5,0,0,0,1.37-3.63A2.72,2.72,0,0,0,170.28,9c-.48-.35-17.67.3-17.67.3" transform="translate(0.01 -0.18)"/><path class="cls-12" d="M151.72,9a13.52,13.52,0,0,0-3.27,2.67A4.11,4.11,0,0,0,148,15.7,4.57,4.57,0,0,0,151.29,19c1.21.4-7.29-4,.43-10" transform="translate(0.01 -0.18)"/><path class="cls-13" d="M170.81,9.65a6.44,6.44,0,0,1-.46,4.08,6,6,0,0,1-3.15,2c-.44.12-7.44,2.12-8.91,2-1.81-.15-4.52,0-5.91-3.21s-1.24-3.46-1-4.29.64-3.46,1.74-5.11,4.77,3.68,4.77,3.68,7.31-3.89,9.46-2.88,3.38,2.5,3.44,3.72" transform="translate(0.01 -0.18)"/><path class="cls-14" d="M170.81,9.65a6.44,6.44,0,0,1-.46,4.08,6,6,0,0,1-3.15,2c-.44.12-7.44,2.12-8.91,2-1.81-.15,1.73-6.29,3.54-7.87,4.71-4.1,8.92-1.44,9-.22" transform="translate(0.01 -0.18)"/><path class="cls-15" d="M170.24,7.64l-6-2.17-6.76,2.7L155,5.75l8.4-4.12,4.15,1.07s1.1,1,1.2,1.14.63.82.64.88.33.72.45,1.18.33,1.06.35,1.18" transform="translate(0.01 -0.18)"/><polyline class="cls-16" points="163.67 0.9 155.3 4.31 154.26 3.67 156.1 2.01 158.44 0.68 160.82 0.14 162.19 0.14 163.25 0.29 164.05 0.81 163.83 0.9"/><path class="cls-17" d="M169.9,8.49a5.19,5.19,0,0,0-2.63.22c-2.89.83-5.54,2.93-7.9,4.41-1.28,2.17-2.19,4.53-1.08,4.62,1.47.12,8.47-1.88,8.91-2a6,6,0,0,0,3.15-2,6.44,6.44,0,0,0,.46-4.08A1.83,1.83,0,0,0,169.9,8.49Z" transform="translate(0.01 -0.18)"/><path class="cls-18" d="M152.81,5.45c-.13.28-.54,1.18-.3,1.41.41.4,1.21-.39,1.53-.22s-.26,1.41,0,2.34a2.83,2.83,0,0,0,2.27,1.86,3.49,3.49,0,0,0,3-1c.51-.43,4.89-4.67,9.23-2.54a4.12,4.12,0,0,1,2,3.81c0,1.5-.35,2.92-.14,2.61A7.55,7.55,0,0,0,171,11.2a14.64,14.64,0,0,0-.32-2.87,5.11,5.11,0,0,0-1.9-2.89,6.86,6.86,0,0,0-4.1-1.17,10.25,10.25,0,0,0-4,1c-.79.42-2.68,1.49-3,1.67s-1,.5-1.25,0,0-.85.28-1.15a13.32,13.32,0,0,1,3.42-2.2,8.13,8.13,0,0,1,8.26.28,5.69,5.69,0,0,1,1.46,2.25,6.14,6.14,0,0,0-1.21-2.44,7.82,7.82,0,0,0-3.1-2.28,6.57,6.57,0,0,0-2.78-.54,16.6,16.6,0,0,0-3.52.83c-.61.25-3.39,2-3.83,2.21s-.77.48-.82.22.3-.61.61-.82a17.59,17.59,0,0,1,3.15-1.94,9,9,0,0,1,3.17-.76,6.89,6.89,0,0,1,2.65.59A3.92,3.92,0,0,0,162.4.42a8,8,0,0,0-3.18.24,12.25,12.25,0,0,0-2.85,1.22,11.53,11.53,0,0,0-3.56,3.57" transform="translate(0.01 -0.18)"/><path class="cls-19" d="M152.78,5.28c-.13.28-.54,1.18-.3,1.41.41.39,1.21-.39,1.53-.22s-.26,1.4,0,2.34a2.84,2.84,0,0,0,2.27,1.86,3.52,3.52,0,0,0,3-1c.51-.42,4.71-4.68,9.23-2.53a4.13,4.13,0,0,1,2.1,3.79c0,1.5-.34,3.06-.13,2.75A8.46,8.46,0,0,0,171,11a15.07,15.07,0,0,0-.4-2.86,5.19,5.19,0,0,0-1.9-2.89,6.86,6.86,0,0,0-4.1-1.16,10,10,0,0,0-4,1c-.79.42-2.68,1.49-3,1.67s-1,.51-1.25,0,0-.85.28-1.16a13,13,0,0,1,3.42-2.19c4.11-2,7.55-.4,8.26.28a5.62,5.62,0,0,1,1.46,2.25,6.21,6.21,0,0,0-1.21-2.45,7.92,7.92,0,0,0-3.1-2.28,6.68,6.68,0,0,0-2.78-.53,16.6,16.6,0,0,0-3.52.83c-.61.24-3.39,2-3.83,2.21s-.77.48-.82.21.3-.6.61-.82a18.2,18.2,0,0,1,3.15-1.94,9,9,0,0,1,3.17-.76,7,7,0,0,1,2.65.6,3.79,3.79,0,0,0-1.79-.72,7.94,7.94,0,0,0-3.18.23,12.69,12.69,0,0,0-2.85,1.22,11.69,11.69,0,0,0-3.56,3.58" transform="translate(0.01 -0.18)"/><path class="cls-20" d="M157.39,8.48a10.51,10.51,0,0,1,5.28-3c2.55-.45.32.44-.88.92a26.46,26.46,0,0,0-3.61,2C157.09,9.17,156.5,9.33,157.39,8.48Z" transform="translate(0.01 -0.18)"/><path class="cls-21" d="M165.49,5c.66-.19,2.17.29,1.35.45S164.71,5.24,165.49,5Z" transform="translate(0.01 -0.18)"/><path class="cls-22" d="M155.37,4.74A9.81,9.81,0,0,1,160.29,2c2.38-.42.3.4-.81.86a23,23,0,0,0-3.37,1.85C155.09,5.39,154.55,5.53,155.37,4.74Z" transform="translate(0.01 -0.18)"/><path class="cls-23" d="M162.9,1.58c.59-.24,2,0,1.29.27S162.2,1.87,162.9,1.58Z" transform="translate(0.01 -0.18)"/><path class="cls-24" d="M148.79,16.92a5.34,5.34,0,0,1-.94-2.79c0-1.27.23-.12.36.49a13,13,0,0,0,.62,1.91C149.09,17.12,149.11,17.42,148.79,16.92Z" transform="translate(0.01 -0.18)"/><path class="cls-24" d="M148,12.89c0-.34.38-1,.35-.59S148,13.29,148,12.89Z" transform="translate(0.01 -0.18)"/><path class="cls-24" d="M150.05,18.29c-.31-.08-.83-.64-.46-.51S150.43,18.38,150.05,18.29Z" transform="translate(0.01 -0.18)"/><path class="cls-25" d="M162.82.54a17.66,17.66,0,0,0-3.51.9,34.89,34.89,0,0,0-3.84,2.13c-.38.18-.77.48-.82.22a.48.48,0,0,1,.08-.29.52.52,0,0,0-.15.39c0,.27.44,0,.82-.21s2.93-1.71,3.85-2.09a15.06,15.06,0,0,1,3.5-.95h.48l-.4-.09Z" transform="translate(0.01 -0.18)"/><path class="cls-26" d="M164.64,4.1a10,10,0,0,0-4,1c-.79.42-2.68,1.49-3,1.67s-1,.51-1.25,0a.7.7,0,0,1,0-.8.74.74,0,0,0-.08.9c.29.51.82.28,1.25,0s2.18-1.25,3-1.67a10.25,10.25,0,0,1,4-1,7.05,7.05,0,0,1,3.23.66l.38,0A7,7,0,0,0,164.64,4.1Z" transform="translate(0.01 -0.18)"/><path class="cls-27" d="M168.56,7.06c-4.52-2.14-8.72,2.11-9.23,2.54a3.49,3.49,0,0,1-3,1,2.8,2.8,0,0,1-2.27-1.86c-.26-.93.29-2.19,0-2.34s-.4,0-.66.17l-.1.11c.28-.12.54-.25.69-.17s-.26,1.4,0,2.34a2.84,2.84,0,0,0,2.27,1.86,3.52,3.52,0,0,0,3-1c.51-.42,4.71-4.68,9.23-2.53a3.23,3.23,0,0,1,1,.79h.14A3.21,3.21,0,0,0,168.56,7.06Z" transform="translate(0.01 -0.18)"/><path class="cls-28" d="M159.37,13.12c-1.55,1-3,1.67-4.28,1.57-1.72-.15-3.69-4.45-3.69-4.45-.26.83-.41,1.13,1,4.29s4.1,3.06,5.91,3.21C157.18,17.65,158.09,15.29,159.37,13.12Z" transform="translate(0.01 -0.18)"/></g></svg>